<svg width="125" height="123" viewBox="0 0 125 123" fill="none" xmlns="http://www.w3.org/2000/svg">
<path d="M125 0H0V123H125V0Z" fill="white"/>
<path d="M64.1061 67.8364C57.3126 67.8364 51.7544 73.1254 51.6309 79.7674C52.372 80.0134 53.1131 80.1364 53.9777 80.1364C56.8186 80.1364 59.6595 78.6604 61.1417 76.3234C61.2652 76.0774 61.5123 75.9544 61.7593 75.9544C62.0063 75.9544 62.2534 76.0774 62.3769 76.2004C64.6002 78.6604 67.8117 80.1364 71.1467 80.1364C72.9994 80.1364 74.8522 79.6444 76.4579 78.7834C75.8403 72.6334 70.5291 67.8364 64.1061 67.8364Z" fill="#026848"/>
<path d="M76.4336 91.3237H51.3595V81.3497C52.1006 81.4727 52.9652 81.5957 53.7063 81.5957C56.9178 81.5957 59.7587 80.2427 61.6115 77.9057C64.0818 80.2427 67.4168 81.5957 70.8753 81.5957C72.8516 81.5957 74.7043 81.2267 76.4336 80.4887V91.3237Z" fill="#026848"/>
<path d="M63.7103 54.7963C70.5038 54.7963 76.062 49.5073 76.1855 42.8653C75.4444 42.6193 74.7033 42.4963 73.8387 42.4963C70.9978 42.4963 68.1569 43.9723 66.6747 46.3093C66.5512 46.5553 66.3041 46.6783 66.0571 46.6783C65.8101 46.6783 65.563 46.5553 65.4395 46.4323C63.2162 43.9723 60.0047 42.4963 56.6697 42.4963C54.817 42.4963 52.9642 42.9883 51.3585 43.8493C51.9761 49.9993 57.2874 54.7963 63.7103 54.7963Z" fill="#026848"/>
<path d="M51.3828 31.309L76.4569 31.309L76.4569 41.2831C75.7158 41.1601 74.8512 41.0371 74.1101 41.0371C70.8986 41.0371 68.0577 42.3901 66.205 44.7271C63.7346 42.3901 60.3996 41.0371 56.9411 41.0371C54.9648 41.0371 53.1121 41.4061 51.3828 42.1441L51.3828 31.309Z" fill="#026848"/>
<path d="M42.7773 30.5632L84.9415 30.5632" stroke="#026848" stroke-width="5" stroke-linecap="round"/>
<path d="M42.7773 92.0637L84.9415 92.0637" stroke="#026848" stroke-width="5" stroke-linecap="round"/>
<path d="M45.8965 36.5273L45.8965 30.9364" stroke="#026848" stroke-width="5" stroke-linecap="round"/>
<path d="M81.3438 92.0637L81.3437 86.4728" stroke="#026848" stroke-width="5" stroke-linecap="round"/>
<path d="M37.5491 75.4002C37.5491 74.1702 36.561 73.0633 35.2023 73.0633C33.8436 73.0633 32.8555 74.0472 32.8555 75.4002C32.8555 76.7532 33.8436 77.7373 35.2023 77.7373C36.561 77.7373 37.5491 76.6302 37.5491 75.4002Z" fill="#026848"/>
<path d="M93.7502 86.84C92.8856 86.84 92.1445 87.5781 92.1445 88.4391C92.1445 89.3001 92.8856 90.038 93.7502 90.038C94.6149 90.038 95.356 89.3001 95.356 88.4391C95.356 87.5781 94.6149 86.84 93.7502 86.84Z" fill="#026848"/>
<path d="M95.3556 43.79C95.3556 42.068 93.9969 40.715 92.2676 40.715C90.5384 40.715 89.1797 42.068 89.1797 43.79C89.1797 45.512 90.5384 46.865 92.2676 46.865C93.9969 46.865 95.3556 45.512 95.3556 43.79Z" fill="#026848"/>
<path d="M34.7092 47.6021C35.5739 47.6021 36.3149 48.3401 36.3149 49.2011C36.3149 50.0621 35.5739 50.8 34.7092 50.8C33.8446 50.8 33.1035 50.0621 33.1035 49.2011C33.1035 48.3401 33.8446 47.6021 34.7092 47.6021Z" fill="#026848"/>
<path d="M30.1389 30.7511C31.0035 30.7511 31.7447 31.4891 31.7447 32.3501C31.7447 33.2111 31.0035 33.9491 30.1389 33.9491C29.2743 33.9491 28.5332 33.2111 28.5332 32.3501C28.5332 31.4891 29.2743 30.7511 30.1389 30.7511Z" fill="#026848"/>
<path d="M87.8225 67.6511C88.6871 67.6511 89.4282 68.3891 89.4282 69.2501C89.4282 70.1111 88.6871 70.8491 87.8225 70.8491C86.9579 70.8491 86.2168 70.1111 86.2168 69.2501C86.2168 68.3891 86.9579 67.6511 87.8225 67.6511Z" fill="#026848"/>
<path d="M36.4395 84.5021C37.3041 84.5021 38.0452 85.2401 38.0452 86.1011C38.0452 86.9621 37.3041 87.7001 36.4395 87.7001C35.5749 87.7001 34.8338 86.9621 34.8338 86.1011C34.7103 85.2401 35.4514 84.5021 36.4395 84.5021Z" fill="#026848"/>
<path d="M91.0333 32.2271C91.8979 32.2271 92.639 32.9651 92.639 33.8261C92.639 34.6871 91.8979 35.425 91.0333 35.425C90.1687 35.425 89.4275 34.6871 89.4275 33.8261C89.304 32.9651 90.0451 32.2271 91.0333 32.2271Z" fill="#026848"/>
</svg>
