<svg width="32" height="32" viewBox="0 0 32 32" fill="none" xmlns="http://www.w3.org/2000/svg">
<path opacity="0.2" fill-rule="evenodd" clip-rule="evenodd" d="M0 16C0 7.16344 7.16344 0 16 0C24.8366 0 32 7.16344 32 16C32 24.8366 24.8366 32 16 32C7.16344 32 0 24.8366 0 16Z" fill="#026848"/>
<path fill-rule="evenodd" clip-rule="evenodd" d="M16.0009 7.46655C13.6834 7.46655 13.3925 7.47669 12.4823 7.51811C11.5739 7.55971 10.9538 7.70353 10.4112 7.91456C9.84993 8.13252 9.37384 8.42407 8.89952 8.89857C8.42485 9.37288 8.13329 9.84898 7.91462 10.41C7.70307 10.9528 7.55906 11.5731 7.51818 12.4812C7.47746 13.3914 7.4668 13.6824 7.4668 16C7.4668 18.3175 7.47711 18.6075 7.51835 19.5177C7.56013 20.4262 7.70395 21.0462 7.9148 21.5888C8.13294 22.1501 8.4245 22.6262 8.89899 23.1005C9.37313 23.5752 9.84922 23.8674 10.4101 24.0854C10.9531 24.2964 11.5733 24.4402 12.4816 24.4818C13.3918 24.5233 13.6825 24.5334 15.9999 24.5334C18.3176 24.5334 18.6075 24.5233 19.5178 24.4818C20.4262 24.4402 21.047 24.2964 21.59 24.0854C22.151 23.8674 22.6264 23.5752 23.1006 23.1005C23.5752 22.6262 23.8668 22.1501 24.0855 21.589C24.2952 21.0462 24.4392 20.426 24.4819 19.5179C24.5228 18.6076 24.5335 18.3175 24.5335 16C24.5335 13.6824 24.5228 13.3916 24.4819 12.4814C24.4392 11.5729 24.2952 10.9528 24.0855 10.4102C23.8668 9.84898 23.5752 9.37288 23.1006 8.89857C22.6259 8.4239 22.1512 8.13234 21.5894 7.91456C21.0454 7.70353 20.425 7.55971 19.5165 7.51811C18.6063 7.47669 18.3165 7.46655 15.9983 7.46655H16.0009ZM15.2354 9.00432C15.4626 9.00397 15.7161 9.00432 16.0009 9.00432C18.2793 9.00432 18.5494 9.0125 19.4491 9.05339C20.2811 9.09143 20.7327 9.23046 21.0335 9.34726C21.4317 9.50193 21.7156 9.68682 22.0141 9.98549C22.3128 10.2842 22.4977 10.5686 22.6527 10.9668C22.7695 11.2673 22.9087 11.7188 22.9466 12.5508C22.9875 13.4504 22.9963 13.7206 22.9963 15.998C22.9963 18.2754 22.9875 18.5456 22.9466 19.4451C22.9085 20.2772 22.7695 20.7287 22.6527 21.0292C22.498 21.4274 22.3128 21.7109 22.0141 22.0094C21.7154 22.3081 21.4319 22.493 21.0335 22.6477C20.733 22.765 20.2811 22.9037 19.4491 22.9417C18.5495 22.9826 18.2793 22.9915 16.0009 22.9915C13.7223 22.9915 13.4522 22.9826 12.5527 22.9417C11.7207 22.9033 11.2691 22.7643 10.9681 22.6475C10.5699 22.4928 10.2855 22.3079 9.98679 22.0093C9.68812 21.7106 9.50323 21.4269 9.3482 21.0284C9.2314 20.728 9.0922 20.2764 9.05433 19.4444C9.01344 18.5449 9.00527 18.2746 9.00527 15.9959C9.00527 13.7171 9.01344 13.4483 9.05433 12.5487C9.09238 11.7167 9.2314 11.2651 9.3482 10.9643C9.50287 10.5661 9.68812 10.2817 9.98679 9.983C10.2855 9.68433 10.5699 9.49944 10.9681 9.34441C11.2689 9.22708 11.7207 9.08841 12.5527 9.05019C13.3399 9.01463 13.645 9.00397 15.2354 9.00219V9.00432ZM20.556 10.4212C19.9906 10.4212 19.532 10.8794 19.532 11.4449C19.532 12.0102 19.9906 12.4689 20.556 12.4689C21.1213 12.4689 21.58 12.0102 21.58 11.4449C21.58 10.8795 21.1213 10.4212 20.556 10.4212ZM16.0009 11.6177C13.5808 11.6177 11.6187 13.5798 11.6187 16C11.6187 18.4201 13.5808 20.3813 16.0009 20.3813C18.4211 20.3813 20.3825 18.4201 20.3825 16C20.3825 13.5798 18.4211 11.6177 16.0009 11.6177ZM16.0009 13.1555C17.5718 13.1555 18.8454 14.4289 18.8454 16C18.8454 17.5708 17.5718 18.8444 16.0009 18.8444C14.4299 18.8444 13.1564 17.5708 13.1564 16C13.1564 14.4289 14.4299 13.1555 16.0009 13.1555Z" fill="#026848" stroke="#026848"/>
</svg>
