<svg width="70" height="70" viewBox="0 0 70 70" fill="none" xmlns="http://www.w3.org/2000/svg">
<rect width="70" height="70" rx="6" fill="#F1F8F5"/>
<path d="M35 14C23.4206 14 14 23.2636 14 34.65V43.2053C14 45.3199 15.8837 47.04 18.2 47.04H20.3C20.857 47.04 21.3911 46.8224 21.7849 46.4352C22.1787 46.0479 22.4 45.5227 22.4 44.975V34.3547C22.4 33.807 22.1787 33.2818 21.7849 32.8945C21.3911 32.5073 20.857 32.2897 20.3 32.2897H18.3932C19.5608 24.2982 26.5538 18.13 35 18.13C43.4462 18.13 50.4392 24.2982 51.6068 32.2897H49.7C49.143 32.2897 48.6089 32.5073 48.2151 32.8945C47.8212 33.2818 47.6 33.807 47.6 34.3547V47.04C47.6 49.3177 45.7163 51.17 43.4 51.17H39.2V49.105H30.8V55.3H43.4C48.0326 55.3 51.8 51.5954 51.8 47.04C54.1163 47.04 56 45.3199 56 43.2053V34.65C56 23.2636 46.5794 14 35 14Z" fill="#026848"/>
<path d="M35.9878 24.6775V26.6405C39.8913 27.1166 42.9054 30.3818 42.9054 34.3466C42.9054 37.4659 41.008 40.1771 38.241 41.421L35.9878 39.2054V44.0642H40.929L39.7233 42.8786C42.8165 41.2169 44.8819 38.0004 44.8819 34.3466C44.8819 29.3128 40.9784 25.1634 35.9878 24.6775ZM34.0113 24.6289C32.0842 24.8233 30.256 25.5618 28.7539 26.7765L30.1572 28.1564C31.2789 27.3061 32.6078 26.7599 34.0113 26.5724V24.6289ZM27.2913 28.205C26.0659 29.6821 25.3148 31.4798 25.1172 33.3748H27.0937C27.2814 31.9949 27.8348 30.683 28.7045 29.5849L27.2913 28.205ZM29.0701 30.4595V32.403H32.0348V33.3748H31.0466C29.9595 33.3748 29.0701 34.2494 29.0701 35.3183V38.2336H34.0113V36.2901H31.0466V35.3183H32.0348C33.1318 35.3183 34.0113 34.4534 34.0113 33.3748V32.403C34.0113 31.8876 33.8031 31.3932 33.4324 31.0287C33.0617 30.6643 32.559 30.4595 32.0348 30.4595H29.0701ZM34.9995 30.4595V35.3183H37.9642V38.2336H39.9407V35.3183H40.929V33.3748H39.9407V30.4595H37.9642V33.3748H36.976V30.4595H34.9995ZM25.1172 35.3183C25.3148 37.2133 26.0758 39.011 27.3111 40.4881L28.7144 39.1082C27.8467 38.0058 27.2879 36.6991 27.0937 35.3183H25.1172ZM30.1671 40.5367L28.7539 41.9166C30.2554 43.1221 32.0831 43.8687 34.0113 44.0642V42.1207C32.6097 41.9374 31.2829 41.3907 30.1671 40.5367Z" fill="#026848"/>
</svg>
