<svg width="187" height="88" viewBox="0 0 187 88" fill="none" xmlns="http://www.w3.org/2000/svg">
<g filter="url(#filter0_d_50_1114)">
<rect x="16" y="16" width="160" height="64" rx="10" fill="black"/>
<rect x="18.5" y="18.5" width="155" height="59" rx="7.5" stroke="white" stroke-width="5"/>
</g>
<path d="M50.299 57.7485C49.2759 59.3604 48.1912 60.9333 46.5395 60.9593C44.8878 60.9983 44.3578 59.9323 42.4842 59.9323C40.5983 59.9323 40.0189 60.9333 38.4535 60.9983C36.8388 61.0633 35.6185 59.2824 34.5831 57.7095C32.4753 54.4987 30.8606 48.5841 33.03 44.6064C34.1023 42.6305 36.0252 41.3826 38.1084 41.3436C39.6861 41.3176 41.1899 42.4745 42.1637 42.4745C43.1251 42.4745 44.9494 41.0836 46.86 41.2916C47.6612 41.3306 49.9045 41.6296 51.3467 43.8654C51.2358 43.9434 48.6719 45.5293 48.6966 48.8181C48.7336 52.7438 51.963 54.0567 52 54.0697C51.963 54.1607 51.4823 55.9416 50.299 57.7485ZM43.2607 36.9499C44.1605 35.8709 45.652 35.052 46.8846 35C47.0449 36.5209 46.4655 38.0548 45.6027 39.1467C44.7522 40.2517 43.347 41.1096 41.9665 40.9926C41.7816 39.4977 42.4718 37.9378 43.2607 36.9499Z" fill="white"/>
<path d="M70.78 36.05C70.6 35.7033 70.35 35.4433 70.03 35.27C69.71 35.09 69.34 35 68.92 35C68.46 35 68.05 35.1033 67.69 35.31C67.33 35.5167 67.0467 35.81 66.84 36.19C66.64 36.57 66.54 37.01 66.54 37.51C66.54 38.01 66.64 38.4533 66.84 38.84C67.0467 39.22 67.33 39.5133 67.69 39.72C68.05 39.9267 68.46 40.03 68.92 40.03C69.54 40.03 70.0433 39.8567 70.43 39.51C70.8167 39.1633 71.0533 38.6933 71.14 38.1H68.53V37.19H72.36V38.08C72.2867 38.62 72.0933 39.1167 71.78 39.57C71.4733 40.0233 71.07 40.3867 70.57 40.66C70.0767 40.9267 69.5267 41.06 68.92 41.06C68.2667 41.06 67.67 40.91 67.13 40.61C66.59 40.3033 66.16 39.88 65.84 39.34C65.5267 38.8 65.37 38.19 65.37 37.51C65.37 36.83 65.5267 36.22 65.84 35.68C66.16 35.14 66.59 34.72 67.13 34.42C67.6767 34.1133 68.2733 33.96 68.92 33.96C69.66 33.96 70.3167 34.1433 70.89 34.51C71.47 34.87 71.89 35.3833 72.15 36.05H70.78ZM78.5344 38.11C78.5344 38.3167 78.521 38.5033 78.4944 38.67H74.2844C74.3177 39.11 74.481 39.4633 74.7744 39.73C75.0677 39.9967 75.4277 40.13 75.8544 40.13C76.4677 40.13 76.901 39.8733 77.1544 39.36H78.3844C78.2177 39.8667 77.9144 40.2833 77.4744 40.61C77.041 40.93 76.501 41.09 75.8544 41.09C75.3277 41.09 74.8544 40.9733 74.4344 40.74C74.021 40.5 73.6944 40.1667 73.4544 39.74C73.221 39.3067 73.1044 38.8067 73.1044 38.24C73.1044 37.6733 73.2177 37.1767 73.4444 36.75C73.6777 36.3167 74.001 35.9833 74.4144 35.75C74.8344 35.5167 75.3144 35.4 75.8544 35.4C76.3744 35.4 76.8377 35.5133 77.2444 35.74C77.651 35.9667 77.9677 36.2867 78.1944 36.7C78.421 37.1067 78.5344 37.5767 78.5344 38.11ZM77.3444 37.75C77.3377 37.33 77.1877 36.9933 76.8944 36.74C76.601 36.4867 76.2377 36.36 75.8044 36.36C75.411 36.36 75.0744 36.4867 74.7944 36.74C74.5144 36.9867 74.3477 37.3233 74.2944 37.75H77.3444ZM80.9863 36.42V39.47C80.9863 39.6767 81.0329 39.8267 81.1263 39.92C81.2263 40.0067 81.3929 40.05 81.6263 40.05H82.3263V41H81.4263C80.9129 41 80.5196 40.88 80.2463 40.64C79.9729 40.4 79.8363 40.01 79.8363 39.47V36.42H79.1863V35.49H79.8363V34.12H80.9863V35.49H82.3263V36.42H80.9863ZM86.5546 34.76C86.3479 34.76 86.1746 34.69 86.0346 34.55C85.8946 34.41 85.8246 34.2367 85.8246 34.03C85.8246 33.8233 85.8946 33.65 86.0346 33.51C86.1746 33.37 86.3479 33.3 86.5546 33.3C86.7546 33.3 86.9246 33.37 87.0646 33.51C87.2046 33.65 87.2746 33.8233 87.2746 34.03C87.2746 34.2367 87.2046 34.41 87.0646 34.55C86.9246 34.69 86.7546 34.76 86.5546 34.76ZM87.1146 35.49V41H85.9746V35.49H87.1146ZM89.9413 36.42V39.47C89.9413 39.6767 89.988 39.8267 90.0813 39.92C90.1813 40.0067 90.348 40.05 90.5813 40.05H91.2813V41H90.3813C89.868 41 89.4747 40.88 89.2013 40.64C88.928 40.4 88.7913 40.01 88.7913 39.47V36.42H88.1413V35.49H88.7913V34.12H89.9413V35.49H91.2813V36.42H89.9413ZM97.3197 41.09C96.7997 41.09 96.3297 40.9733 95.9097 40.74C95.4897 40.5 95.1597 40.1667 94.9197 39.74C94.6797 39.3067 94.5597 38.8067 94.5597 38.24C94.5597 37.68 94.683 37.1833 94.9297 36.75C95.1764 36.3167 95.513 35.9833 95.9397 35.75C96.3664 35.5167 96.843 35.4 97.3697 35.4C97.8964 35.4 98.373 35.5167 98.7997 35.75C99.2264 35.9833 99.563 36.3167 99.8097 36.75C100.056 37.1833 100.18 37.68 100.18 38.24C100.18 38.8 100.053 39.2967 99.7997 39.73C99.5464 40.1633 99.1997 40.5 98.7597 40.74C98.3264 40.9733 97.8464 41.09 97.3197 41.09ZM97.3197 40.1C97.613 40.1 97.8864 40.03 98.1397 39.89C98.3997 39.75 98.6097 39.54 98.7697 39.26C98.9297 38.98 99.0097 38.64 99.0097 38.24C99.0097 37.84 98.933 37.5033 98.7797 37.23C98.6264 36.95 98.423 36.74 98.1697 36.6C97.9164 36.46 97.643 36.39 97.3497 36.39C97.0564 36.39 96.783 36.46 96.5297 36.6C96.283 36.74 96.0864 36.95 95.9397 37.23C95.793 37.5033 95.7197 37.84 95.7197 38.24C95.7197 38.8333 95.8697 39.2933 96.1697 39.62C96.4764 39.94 96.8597 40.1 97.3197 40.1ZM104.087 35.4C104.52 35.4 104.907 35.49 105.247 35.67C105.593 35.85 105.863 36.1167 106.057 36.47C106.25 36.8233 106.347 37.25 106.347 37.75V41H105.217V37.92C105.217 37.4267 105.093 37.05 104.847 36.79C104.6 36.5233 104.263 36.39 103.837 36.39C103.41 36.39 103.07 36.5233 102.817 36.79C102.57 37.05 102.447 37.4267 102.447 37.92V41H101.307V35.49H102.447V36.12C102.633 35.8933 102.87 35.7167 103.157 35.59C103.45 35.4633 103.76 35.4 104.087 35.4Z" fill="white"/>
<path d="M71.958 58.138H68.066L67.422 60H65.364L68.878 50.214H71.16L74.674 60H72.602L71.958 58.138ZM71.426 56.57L70.012 52.482L68.598 56.57H71.426ZM77.9475 53.364C78.1995 53.0093 78.5448 52.7153 78.9835 52.482C79.4315 52.2393 79.9402 52.118 80.5095 52.118C81.1722 52.118 81.7695 52.2813 82.3015 52.608C82.8428 52.9347 83.2675 53.4013 83.5755 54.008C83.8928 54.6053 84.0515 55.3007 84.0515 56.094C84.0515 56.8873 83.8928 57.592 83.5755 58.208C83.2675 58.8147 82.8428 59.286 82.3015 59.622C81.7695 59.958 81.1722 60.126 80.5095 60.126C79.9402 60.126 79.4362 60.0093 78.9975 59.776C78.5682 59.5427 78.2182 59.2487 77.9475 58.894V63.696H75.9875V52.244H77.9475V53.364ZM82.0495 56.094C82.0495 55.6273 81.9515 55.226 81.7555 54.89C81.5688 54.5447 81.3168 54.2833 80.9995 54.106C80.6915 53.9287 80.3555 53.84 79.9915 53.84C79.6368 53.84 79.3008 53.9333 78.9835 54.12C78.6755 54.2973 78.4235 54.5587 78.2275 54.904C78.0408 55.2493 77.9475 55.6553 77.9475 56.122C77.9475 56.5887 78.0408 56.9947 78.2275 57.34C78.4235 57.6853 78.6755 57.9513 78.9835 58.138C79.3008 58.3153 79.6368 58.404 79.9915 58.404C80.3555 58.404 80.6915 58.3107 80.9995 58.124C81.3168 57.9373 81.5688 57.6713 81.7555 57.326C81.9515 56.9807 82.0495 56.57 82.0495 56.094ZM87.4358 53.364C87.6878 53.0093 88.0331 52.7153 88.4718 52.482C88.9198 52.2393 89.4284 52.118 89.9978 52.118C90.6604 52.118 91.2578 52.2813 91.7898 52.608C92.3311 52.9347 92.7558 53.4013 93.0638 54.008C93.3811 54.6053 93.5398 55.3007 93.5398 56.094C93.5398 56.8873 93.3811 57.592 93.0638 58.208C92.7558 58.8147 92.3311 59.286 91.7898 59.622C91.2578 59.958 90.6604 60.126 89.9978 60.126C89.4284 60.126 88.9244 60.0093 88.4858 59.776C88.0564 59.5427 87.7064 59.2487 87.4358 58.894V63.696H85.4758V52.244H87.4358V53.364ZM91.5378 56.094C91.5378 55.6273 91.4398 55.226 91.2438 54.89C91.0571 54.5447 90.8051 54.2833 90.4878 54.106C90.1798 53.9287 89.8438 53.84 89.4798 53.84C89.1251 53.84 88.7891 53.9333 88.4718 54.12C88.1638 54.2973 87.9118 54.5587 87.7158 54.904C87.5291 55.2493 87.4358 55.6553 87.4358 56.122C87.4358 56.5887 87.5291 56.9947 87.7158 57.34C87.9118 57.6853 88.1638 57.9513 88.4718 58.138C88.7891 58.3153 89.1251 58.404 89.4798 58.404C89.8438 58.404 90.1798 58.3107 90.4878 58.124C90.8051 57.9373 91.0571 57.6713 91.2438 57.326C91.4398 56.9807 91.5378 56.57 91.5378 56.094ZM96.924 49.64V60H94.964V49.64H96.924ZM106.071 55.954C106.071 56.234 106.052 56.486 106.015 56.71H100.345C100.391 57.27 100.587 57.7087 100.933 58.026C101.278 58.3433 101.703 58.502 102.207 58.502C102.935 58.502 103.453 58.1893 103.761 57.564H105.875C105.651 58.3107 105.221 58.9267 104.587 59.412C103.952 59.888 103.173 60.126 102.249 60.126C101.502 60.126 100.83 59.9627 100.233 59.636C99.6445 59.3 99.1825 58.8287 98.8465 58.222C98.5199 57.6153 98.3565 56.9153 98.3565 56.122C98.3565 55.3193 98.5199 54.6147 98.8465 54.008C99.1732 53.4013 99.6305 52.9347 100.219 52.608C100.807 52.2813 101.483 52.118 102.249 52.118C102.986 52.118 103.644 52.2767 104.223 52.594C104.811 52.9113 105.263 53.364 105.581 53.952C105.907 54.5307 106.071 55.198 106.071 55.954ZM104.041 55.394C104.031 54.89 103.849 54.4887 103.495 54.19C103.14 53.882 102.706 53.728 102.193 53.728C101.707 53.728 101.297 53.8773 100.961 54.176C100.634 54.4653 100.433 54.8713 100.359 55.394H104.041ZM114.211 60.098C113.53 60.098 112.914 59.9813 112.363 59.748C111.822 59.5147 111.392 59.1787 111.075 58.74C110.758 58.3013 110.594 57.7833 110.585 57.186H112.685C112.713 57.5873 112.853 57.9047 113.105 58.138C113.366 58.3713 113.721 58.488 114.169 58.488C114.626 58.488 114.986 58.3807 115.247 58.166C115.508 57.942 115.639 57.6527 115.639 57.298C115.639 57.0087 115.55 56.7707 115.373 56.584C115.196 56.3973 114.972 56.2527 114.701 56.15C114.44 56.038 114.076 55.9167 113.609 55.786C112.974 55.5993 112.456 55.4173 112.055 55.24C111.663 55.0533 111.322 54.778 111.033 54.414C110.753 54.0407 110.613 53.546 110.613 52.93C110.613 52.3513 110.758 51.8473 111.047 51.418C111.336 50.9887 111.742 50.662 112.265 50.438C112.788 50.2047 113.385 50.088 114.057 50.088C115.065 50.088 115.882 50.3353 116.507 50.83C117.142 51.3153 117.492 51.9967 117.557 52.874H115.401C115.382 52.538 115.238 52.2627 114.967 52.048C114.706 51.824 114.356 51.712 113.917 51.712C113.534 51.712 113.226 51.81 112.993 52.006C112.769 52.202 112.657 52.4867 112.657 52.86C112.657 53.1213 112.741 53.3407 112.909 53.518C113.086 53.686 113.301 53.826 113.553 53.938C113.814 54.0407 114.178 54.162 114.645 54.302C115.28 54.4887 115.798 54.6753 116.199 54.862C116.6 55.0487 116.946 55.3287 117.235 55.702C117.524 56.0753 117.669 56.5653 117.669 57.172C117.669 57.6947 117.534 58.18 117.263 58.628C116.992 59.076 116.596 59.4353 116.073 59.706C115.55 59.9673 114.93 60.098 114.211 60.098ZM121.65 53.854V57.606C121.65 57.8673 121.711 58.0587 121.832 58.18C121.963 58.292 122.178 58.348 122.476 58.348H123.386V60H122.154C120.502 60 119.676 59.1973 119.676 57.592V53.854H118.752V52.244H119.676V50.326H121.65V52.244H123.386V53.854H121.65ZM128.24 60.126C127.493 60.126 126.821 59.9627 126.224 59.636C125.627 59.3 125.155 58.8287 124.81 58.222C124.474 57.6153 124.306 56.9153 124.306 56.122C124.306 55.3287 124.479 54.6287 124.824 54.022C125.179 53.4153 125.659 52.9487 126.266 52.622C126.873 52.286 127.549 52.118 128.296 52.118C129.043 52.118 129.719 52.286 130.326 52.622C130.933 52.9487 131.409 53.4153 131.754 54.022C132.109 54.6287 132.286 55.3287 132.286 56.122C132.286 56.9153 132.104 57.6153 131.74 58.222C131.385 58.8287 130.9 59.3 130.284 59.636C129.677 59.9627 128.996 60.126 128.24 60.126ZM128.24 58.418C128.595 58.418 128.926 58.334 129.234 58.166C129.551 57.9887 129.803 57.7273 129.99 57.382C130.177 57.0367 130.27 56.6167 130.27 56.122C130.27 55.3847 130.074 54.82 129.682 54.428C129.299 54.0267 128.828 53.826 128.268 53.826C127.708 53.826 127.237 54.0267 126.854 54.428C126.481 54.82 126.294 55.3847 126.294 56.122C126.294 56.8593 126.476 57.4287 126.84 57.83C127.213 58.222 127.68 58.418 128.24 58.418ZM135.684 53.448C135.936 53.0373 136.262 52.7153 136.664 52.482C137.074 52.2487 137.541 52.132 138.064 52.132V54.19H137.546C136.93 54.19 136.463 54.3347 136.146 54.624C135.838 54.9133 135.684 55.4173 135.684 56.136V60H133.724V52.244H135.684V53.448ZM146.594 55.954C146.594 56.234 146.575 56.486 146.538 56.71H140.868C140.915 57.27 141.111 57.7087 141.456 58.026C141.801 58.3433 142.226 58.502 142.73 58.502C143.458 58.502 143.976 58.1893 144.284 57.564H146.398C146.174 58.3107 145.745 58.9267 145.11 59.412C144.475 59.888 143.696 60.126 142.772 60.126C142.025 60.126 141.353 59.9627 140.756 59.636C140.168 59.3 139.706 58.8287 139.37 58.222C139.043 57.6153 138.88 56.9153 138.88 56.122C138.88 55.3193 139.043 54.6147 139.37 54.008C139.697 53.4013 140.154 52.9347 140.742 52.608C141.33 52.2813 142.007 52.118 142.772 52.118C143.509 52.118 144.167 52.2767 144.746 52.594C145.334 52.9113 145.787 53.364 146.104 53.952C146.431 54.5307 146.594 55.198 146.594 55.954ZM144.564 55.394C144.555 54.89 144.373 54.4887 144.018 54.19C143.663 53.882 143.229 53.728 142.716 53.728C142.231 53.728 141.82 53.8773 141.484 54.176C141.157 54.4653 140.957 54.8713 140.882 55.394H144.564Z" fill="white"/>
<defs>
<filter id="filter0_d_50_1114" x="0" y="0" width="192" height="96" filterUnits="userSpaceOnUse" color-interpolation-filters="sRGB">
<feFlood flood-opacity="0" result="BackgroundImageFix"/>
<feColorMatrix in="SourceAlpha" type="matrix" values="0 0 0 0 0 0 0 0 0 0 0 0 0 0 0 0 0 0 127 0" result="hardAlpha"/>
<feOffset/>
<feGaussianBlur stdDeviation="8"/>
<feComposite in2="hardAlpha" operator="out"/>
<feColorMatrix type="matrix" values="0 0 0 0 0 0 0 0 0 0 0 0 0 0 0 0 0 0 0.26 0"/>
<feBlend mode="normal" in2="BackgroundImageFix" result="effect1_dropShadow_50_1114"/>
<feBlend mode="normal" in="SourceGraphic" in2="effect1_dropShadow_50_1114" result="shape"/>
</filter>
</defs>
</svg>
