<svg width="331" height="56" viewBox="0 0 331 56" fill="none" xmlns="http://www.w3.org/2000/svg">
<path d="M330.256 0.584716L321.662 1.64722L326.879 8.55931L330.256 0.584716ZM0.713107 33.9363C0.413824 34.624 0.414301 34.6242 0.415011 34.6245C0.415559 34.6248 0.416503 34.6252 0.417599 34.6257C0.419791 34.6266 0.422918 34.628 0.426977 34.6297C0.435095 34.6332 0.446945 34.6383 0.462519 34.645C0.493667 34.6583 0.53971 34.678 0.600586 34.7036C0.722339 34.755 0.903427 34.8305 1.14335 34.9284C1.62321 35.1243 2.33842 35.4096 3.28504 35.7698C5.17828 36.4902 7.99715 37.5103 11.71 38.7133C19.1356 41.1192 30.1372 44.2568 44.4613 47.1923C73.1097 53.0633 115.048 58.1255 168.246 54.9087L168.156 53.4115C115.1 56.6196 73.2944 51.57 44.7624 45.7228C30.4963 42.7992 19.5485 39.6762 12.1723 37.2863C8.48423 36.0914 5.68908 35.0797 3.81853 34.3679C2.88325 34.012 2.17913 33.731 1.71012 33.5396C1.47561 33.4439 1.29988 33.3706 1.18343 33.3215C1.12521 33.297 1.0818 33.2785 1.05327 33.2662C1.03901 33.2601 1.02846 33.2556 1.02165 33.2526C1.01824 33.2512 1.01576 33.2501 1.01422 33.2494C1.01345 33.2491 1.01299 33.2489 1.0126 33.2487C1.01238 33.2486 1.01239 33.2486 0.713107 33.9363ZM168.246 54.9087C255.555 49.6293 308.893 16.9047 325.302 5.26406L324.434 4.04064C308.191 15.5631 255.117 48.153 168.156 53.4115L168.246 54.9087Z" fill="#026848" fill-opacity="0.5"/>
</svg>
