<svg width="176" height="88" viewBox="0 0 176 88" fill="none" xmlns="http://www.w3.org/2000/svg">
<g filter="url(#filter0_d_50_1105)">
<rect y="16" width="160" height="64" rx="10" fill="black"/>
<rect x="2.5" y="18.5" width="155" height="59" rx="7.5" stroke="white" stroke-width="5"/>
</g>
<g clip-path="url(#clip0_50_1105)">
<path d="M34.4377 51.9721C37.6076 50.2809 40.0106 48.9922 40.2178 48.892C40.8804 48.5496 41.5646 47.6434 40.2178 46.9395C39.7829 46.7181 37.4416 45.4696 34.4377 43.8594L30.2734 47.9458L34.4377 51.972V51.9721Z" fill="#FFD900"/>
<path d="M30.2751 47.9453L17.0156 60.9304C17.3269 60.9705 17.6782 60.8903 18.0925 60.669C18.9622 60.2064 28.1821 55.3139 34.4394 51.9726L30.2751 47.9453Z" fill="#F43249"/>
<path d="M30.2742 47.9472L34.4385 43.8809C34.4385 43.8809 19.0242 35.7069 18.0916 35.2244C17.7402 35.0222 17.3465 34.9621 16.9941 35.0222L30.2742 47.9472Z" fill="#00EE76"/>
<path d="M30.2745 47.9485L16.9944 35.0234C16.4555 35.1445 16 35.6072 16 36.5535V59.4036C16 60.2696 16.3524 60.8934 17.015 60.9536L30.2745 47.9485Z" fill="#00D3FF"/>
</g>
<path d="M59.78 36.05C59.6 35.7033 59.35 35.4433 59.03 35.27C58.71 35.09 58.34 35 57.92 35C57.46 35 57.05 35.1033 56.69 35.31C56.33 35.5167 56.0467 35.81 55.84 36.19C55.64 36.57 55.54 37.01 55.54 37.51C55.54 38.01 55.64 38.4533 55.84 38.84C56.0467 39.22 56.33 39.5133 56.69 39.72C57.05 39.9267 57.46 40.03 57.92 40.03C58.54 40.03 59.0433 39.8567 59.43 39.51C59.8167 39.1633 60.0533 38.6933 60.14 38.1H57.53V37.19H61.36V38.08C61.2867 38.62 61.0933 39.1167 60.78 39.57C60.4733 40.0233 60.07 40.3867 59.57 40.66C59.0767 40.9267 58.5267 41.06 57.92 41.06C57.2667 41.06 56.67 40.91 56.13 40.61C55.59 40.3033 55.16 39.88 54.84 39.34C54.5267 38.8 54.37 38.19 54.37 37.51C54.37 36.83 54.5267 36.22 54.84 35.68C55.16 35.14 55.59 34.72 56.13 34.42C56.6767 34.1133 57.2733 33.96 57.92 33.96C58.66 33.96 59.3167 34.1433 59.89 34.51C60.47 34.87 60.89 35.3833 61.15 36.05H59.78ZM67.5344 38.11C67.5344 38.3167 67.521 38.5033 67.4944 38.67H63.2844C63.3177 39.11 63.481 39.4633 63.7744 39.73C64.0677 39.9967 64.4277 40.13 64.8544 40.13C65.4677 40.13 65.901 39.8733 66.1544 39.36H67.3844C67.2177 39.8667 66.9144 40.2833 66.4744 40.61C66.041 40.93 65.501 41.09 64.8544 41.09C64.3277 41.09 63.8544 40.9733 63.4344 40.74C63.021 40.5 62.6944 40.1667 62.4544 39.74C62.221 39.3067 62.1044 38.8067 62.1044 38.24C62.1044 37.6733 62.2177 37.1767 62.4444 36.75C62.6777 36.3167 63.001 35.9833 63.4144 35.75C63.8344 35.5167 64.3144 35.4 64.8544 35.4C65.3744 35.4 65.8377 35.5133 66.2444 35.74C66.651 35.9667 66.9677 36.2867 67.1944 36.7C67.421 37.1067 67.5344 37.5767 67.5344 38.11ZM66.3444 37.75C66.3377 37.33 66.1877 36.9933 65.8944 36.74C65.601 36.4867 65.2377 36.36 64.8044 36.36C64.411 36.36 64.0744 36.4867 63.7944 36.74C63.5144 36.9867 63.3477 37.3233 63.2944 37.75H66.3444ZM69.9863 36.42V39.47C69.9863 39.6767 70.0329 39.8267 70.1263 39.92C70.2263 40.0067 70.3929 40.05 70.6263 40.05H71.3263V41H70.4263C69.9129 41 69.5196 40.88 69.2463 40.64C68.9729 40.4 68.8363 40.01 68.8363 39.47V36.42H68.1863V35.49H68.8363V34.12H69.9863V35.49H71.3263V36.42H69.9863ZM75.5546 34.76C75.3479 34.76 75.1746 34.69 75.0346 34.55C74.8946 34.41 74.8246 34.2367 74.8246 34.03C74.8246 33.8233 74.8946 33.65 75.0346 33.51C75.1746 33.37 75.3479 33.3 75.5546 33.3C75.7546 33.3 75.9246 33.37 76.0646 33.51C76.2046 33.65 76.2746 33.8233 76.2746 34.03C76.2746 34.2367 76.2046 34.41 76.0646 34.55C75.9246 34.69 75.7546 34.76 75.5546 34.76ZM76.1146 35.49V41H74.9746V35.49H76.1146ZM78.9413 36.42V39.47C78.9413 39.6767 78.988 39.8267 79.0813 39.92C79.1813 40.0067 79.348 40.05 79.5813 40.05H80.2813V41H79.3813C78.868 41 78.4747 40.88 78.2013 40.64C77.928 40.4 77.7913 40.01 77.7913 39.47V36.42H77.1413V35.49H77.7913V34.12H78.9413V35.49H80.2813V36.42H78.9413ZM86.3197 41.09C85.7997 41.09 85.3297 40.9733 84.9097 40.74C84.4897 40.5 84.1597 40.1667 83.9197 39.74C83.6797 39.3067 83.5597 38.8067 83.5597 38.24C83.5597 37.68 83.683 37.1833 83.9297 36.75C84.1764 36.3167 84.513 35.9833 84.9397 35.75C85.3664 35.5167 85.843 35.4 86.3697 35.4C86.8964 35.4 87.373 35.5167 87.7997 35.75C88.2264 35.9833 88.563 36.3167 88.8097 36.75C89.0564 37.1833 89.1797 37.68 89.1797 38.24C89.1797 38.8 89.053 39.2967 88.7997 39.73C88.5464 40.1633 88.1997 40.5 87.7597 40.74C87.3264 40.9733 86.8464 41.09 86.3197 41.09ZM86.3197 40.1C86.613 40.1 86.8864 40.03 87.1397 39.89C87.3997 39.75 87.6097 39.54 87.7697 39.26C87.9297 38.98 88.0097 38.64 88.0097 38.24C88.0097 37.84 87.933 37.5033 87.7797 37.23C87.6264 36.95 87.423 36.74 87.1697 36.6C86.9164 36.46 86.643 36.39 86.3497 36.39C86.0564 36.39 85.783 36.46 85.5297 36.6C85.283 36.74 85.0864 36.95 84.9397 37.23C84.793 37.5033 84.7197 37.84 84.7197 38.24C84.7197 38.8333 84.8697 39.2933 85.1697 39.62C85.4764 39.94 85.8597 40.1 86.3197 40.1ZM93.0866 35.4C93.52 35.4 93.9066 35.49 94.2466 35.67C94.5933 35.85 94.8633 36.1167 95.0566 36.47C95.25 36.8233 95.3466 37.25 95.3466 37.75V41H94.2166V37.92C94.2166 37.4267 94.0933 37.05 93.8466 36.79C93.6 36.5233 93.2633 36.39 92.8366 36.39C92.41 36.39 92.07 36.5233 91.8166 36.79C91.57 37.05 91.4466 37.4267 91.4466 37.92V41H90.3066V35.49H91.4466V36.12C91.6333 35.8933 91.87 35.7167 92.1566 35.59C92.45 35.4633 92.76 35.4 93.0866 35.4Z" fill="white"/>
<path d="M61.77 53.168C61.546 52.7573 61.238 52.4447 60.846 52.23C60.454 52.0153 59.9967 51.908 59.474 51.908C58.8953 51.908 58.382 52.0387 57.934 52.3C57.486 52.5613 57.136 52.9347 56.884 53.42C56.632 53.9053 56.506 54.4653 56.506 55.1C56.506 55.7533 56.632 56.3227 56.884 56.808C57.1453 57.2933 57.5047 57.6667 57.962 57.928C58.4193 58.1893 58.9513 58.32 59.558 58.32C60.3047 58.32 60.916 58.124 61.392 57.732C61.868 57.3307 62.1807 56.7753 62.33 56.066H58.97V54.568H64.262V56.276C64.1313 56.9573 63.8513 57.5873 63.422 58.166C62.9927 58.7447 62.4373 59.2113 61.756 59.566C61.084 59.9113 60.328 60.084 59.488 60.084C58.5453 60.084 57.6913 59.874 56.926 59.454C56.17 59.0247 55.5727 58.432 55.134 57.676C54.7047 56.92 54.49 56.0613 54.49 55.1C54.49 54.1387 54.7047 53.28 55.134 52.524C55.5727 51.7587 56.17 51.166 56.926 50.746C57.6913 50.3167 58.5407 50.102 59.474 50.102C60.5753 50.102 61.532 50.3727 62.344 50.914C63.156 51.446 63.716 52.1973 64.024 53.168H61.77ZM69.1561 60.126C68.4094 60.126 67.7374 59.9627 67.1401 59.636C66.5428 59.3 66.0714 58.8287 65.7261 58.222C65.3901 57.6153 65.2221 56.9153 65.2221 56.122C65.2221 55.3287 65.3948 54.6287 65.7401 54.022C66.0948 53.4153 66.5754 52.9487 67.1821 52.622C67.7888 52.286 68.4654 52.118 69.2121 52.118C69.9588 52.118 70.6354 52.286 71.2421 52.622C71.8488 52.9487 72.3248 53.4153 72.6701 54.022C73.0248 54.6287 73.2021 55.3287 73.2021 56.122C73.2021 56.9153 73.0201 57.6153 72.6561 58.222C72.3014 58.8287 71.8161 59.3 71.2001 59.636C70.5934 59.9627 69.9121 60.126 69.1561 60.126ZM69.1561 58.418C69.5108 58.418 69.8421 58.334 70.1501 58.166C70.4674 57.9887 70.7194 57.7273 70.9061 57.382C71.0928 57.0367 71.1861 56.6167 71.1861 56.122C71.1861 55.3847 70.9901 54.82 70.5981 54.428C70.2154 54.0267 69.7441 53.826 69.1841 53.826C68.6241 53.826 68.1528 54.0267 67.7701 54.428C67.3968 54.82 67.2101 55.3847 67.2101 56.122C67.2101 56.8593 67.3921 57.4287 67.7561 57.83C68.1294 58.222 68.5961 58.418 69.1561 58.418ZM78.0838 60.126C77.3372 60.126 76.6652 59.9627 76.0678 59.636C75.4705 59.3 74.9992 58.8287 74.6538 58.222C74.3178 57.6153 74.1498 56.9153 74.1498 56.122C74.1498 55.3287 74.3225 54.6287 74.6678 54.022C75.0225 53.4153 75.5032 52.9487 76.1098 52.622C76.7165 52.286 77.3932 52.118 78.1398 52.118C78.8865 52.118 79.5632 52.286 80.1698 52.622C80.7765 52.9487 81.2525 53.4153 81.5978 54.022C81.9525 54.6287 82.1298 55.3287 82.1298 56.122C82.1298 56.9153 81.9478 57.6153 81.5838 58.222C81.2292 58.8287 80.7438 59.3 80.1278 59.636C79.5212 59.9627 78.8398 60.126 78.0838 60.126ZM78.0838 58.418C78.4385 58.418 78.7698 58.334 79.0778 58.166C79.3952 57.9887 79.6472 57.7273 79.8338 57.382C80.0205 57.0367 80.1138 56.6167 80.1138 56.122C80.1138 55.3847 79.9178 54.82 79.5258 54.428C79.1432 54.0267 78.6718 53.826 78.1118 53.826C77.5518 53.826 77.0805 54.0267 76.6978 54.428C76.3245 54.82 76.1378 55.3847 76.1378 56.122C76.1378 56.8593 76.3198 57.4287 76.6838 57.83C77.0572 58.222 77.5238 58.418 78.0838 58.418ZM86.6056 52.118C87.1842 52.118 87.6929 52.2347 88.1316 52.468C88.5702 52.692 88.9156 52.986 89.1676 53.35V52.244H91.1416V60.056C91.1416 60.7747 90.9969 61.414 90.7076 61.974C90.4182 62.5433 89.9842 62.9913 89.4056 63.318C88.8269 63.654 88.1269 63.822 87.3056 63.822C86.2042 63.822 85.2989 63.5653 84.5896 63.052C83.8896 62.5387 83.4929 61.8387 83.3996 60.952H85.3456C85.4482 61.3067 85.6676 61.5867 86.0036 61.792C86.3489 62.0067 86.7642 62.114 87.2496 62.114C87.8189 62.114 88.2809 61.9413 88.6356 61.596C88.9902 61.26 89.1676 60.7467 89.1676 60.056V58.852C88.9156 59.216 88.5656 59.5193 88.1176 59.762C87.6789 60.0047 87.1749 60.126 86.6056 60.126C85.9522 60.126 85.3549 59.958 84.8136 59.622C84.2722 59.286 83.8429 58.8147 83.5256 58.208C83.2176 57.592 83.0636 56.8873 83.0636 56.094C83.0636 55.31 83.2176 54.6147 83.5256 54.008C83.8429 53.4013 84.2676 52.9347 84.7996 52.608C85.3409 52.2813 85.9429 52.118 86.6056 52.118ZM89.1676 56.122C89.1676 55.646 89.0742 55.24 88.8876 54.904C88.7009 54.5587 88.4489 54.2973 88.1316 54.12C87.8142 53.9333 87.4736 53.84 87.1096 53.84C86.7456 53.84 86.4096 53.9287 86.1016 54.106C85.7936 54.2833 85.5416 54.5447 85.3456 54.89C85.1589 55.226 85.0656 55.6273 85.0656 56.094C85.0656 56.5607 85.1589 56.9713 85.3456 57.326C85.5416 57.6713 85.7936 57.9373 86.1016 58.124C86.4189 58.3107 86.7549 58.404 87.1096 58.404C87.4736 58.404 87.8142 58.3153 88.1316 58.138C88.4489 57.9513 88.7009 57.69 88.8876 57.354C89.0742 57.0087 89.1676 56.598 89.1676 56.122ZM95.0158 49.64V60H93.0558V49.64H95.0158ZM104.162 55.954C104.162 56.234 104.144 56.486 104.106 56.71H98.4363C98.483 57.27 98.679 57.7087 99.0243 58.026C99.3697 58.3433 99.7943 58.502 100.298 58.502C101.026 58.502 101.544 58.1893 101.852 57.564H103.966C103.742 58.3107 103.313 58.9267 102.678 59.412C102.044 59.888 101.264 60.126 100.34 60.126C99.5937 60.126 98.9217 59.9627 98.3243 59.636C97.7363 59.3 97.2743 58.8287 96.9383 58.222C96.6117 57.6153 96.4483 56.9153 96.4483 56.122C96.4483 55.3193 96.6117 54.6147 96.9383 54.008C97.265 53.4013 97.7223 52.9347 98.3103 52.608C98.8983 52.2813 99.575 52.118 100.34 52.118C101.078 52.118 101.736 52.2767 102.314 52.594C102.902 52.9113 103.355 53.364 103.672 53.952C103.999 54.5307 104.162 55.198 104.162 55.954ZM102.132 55.394C102.123 54.89 101.941 54.4887 101.586 54.19C101.232 53.882 100.798 53.728 100.284 53.728C99.799 53.728 99.3883 53.8773 99.0523 54.176C98.7257 54.4653 98.525 54.8713 98.4503 55.394H102.132ZM116.055 53.252C116.055 53.7747 115.929 54.2647 115.677 54.722C115.434 55.1793 115.047 55.548 114.515 55.828C113.992 56.108 113.33 56.248 112.527 56.248H110.889V60H108.929V50.228H112.527C113.283 50.228 113.927 50.3587 114.459 50.62C114.991 50.8813 115.388 51.2407 115.649 51.698C115.92 52.1553 116.055 52.6733 116.055 53.252ZM112.443 54.666C112.984 54.666 113.386 54.5447 113.647 54.302C113.908 54.05 114.039 53.7 114.039 53.252C114.039 52.3 113.507 51.824 112.443 51.824H110.889V54.666H112.443ZM119.406 49.64V60H117.446V49.64H119.406ZM120.839 56.094C120.839 55.31 120.993 54.6147 121.301 54.008C121.618 53.4013 122.043 52.9347 122.575 52.608C123.116 52.2813 123.718 52.118 124.381 52.118C124.96 52.118 125.464 52.2347 125.893 52.468C126.332 52.7013 126.682 52.9953 126.943 53.35V52.244H128.917V60H126.943V58.866C126.691 59.23 126.341 59.5333 125.893 59.776C125.454 60.0093 124.946 60.126 124.367 60.126C123.714 60.126 123.116 59.958 122.575 59.622C122.043 59.286 121.618 58.8147 121.301 58.208C120.993 57.592 120.839 56.8873 120.839 56.094ZM126.943 56.122C126.943 55.646 126.85 55.24 126.663 54.904C126.476 54.5587 126.224 54.2973 125.907 54.12C125.59 53.9333 125.249 53.84 124.885 53.84C124.521 53.84 124.185 53.9287 123.877 54.106C123.569 54.2833 123.317 54.5447 123.121 54.89C122.934 55.226 122.841 55.6273 122.841 56.094C122.841 56.5607 122.934 56.9713 123.121 57.326C123.317 57.6713 123.569 57.9373 123.877 58.124C124.194 58.3107 124.53 58.404 124.885 58.404C125.249 58.404 125.59 58.3153 125.907 58.138C126.224 57.9513 126.476 57.69 126.663 57.354C126.85 57.0087 126.943 56.598 126.943 56.122ZM138.251 52.244L133.449 63.668H131.363L133.043 59.804L129.935 52.244H132.133L134.135 57.662L136.165 52.244H138.251Z" fill="white"/>
<defs>
<filter id="filter0_d_50_1105" x="-16" y="0" width="192" height="96" filterUnits="userSpaceOnUse" color-interpolation-filters="sRGB">
<feFlood flood-opacity="0" result="BackgroundImageFix"/>
<feColorMatrix in="SourceAlpha" type="matrix" values="0 0 0 0 0 0 0 0 0 0 0 0 0 0 0 0 0 0 127 0" result="hardAlpha"/>
<feOffset/>
<feGaussianBlur stdDeviation="8"/>
<feComposite in2="hardAlpha" operator="out"/>
<feColorMatrix type="matrix" values="0 0 0 0 0 0 0 0 0 0 0 0 0 0 0 0 0 0 0.26 0"/>
<feBlend mode="normal" in2="BackgroundImageFix" result="effect1_dropShadow_50_1105"/>
<feBlend mode="normal" in="SourceGraphic" in2="effect1_dropShadow_50_1105" result="shape"/>
</filter>
<clipPath id="clip0_50_1105">
<rect width="25" height="26" fill="white" transform="translate(16 35)"/>
</clipPath>
</defs>
</svg>
