<svg width="141" height="139" viewBox="0 0 141 139" fill="none" xmlns="http://www.w3.org/2000/svg">
<rect width="141" height="139" fill="white"/>
<path d="M57.5073 80.3691C57.5073 79.5582 56.7959 78.9002 55.9175 78.9002C55.039 78.9002 54.3277 79.5582 54.3277 80.3691C54.3277 81.1807 55.0392 81.8382 55.9175 81.8382C56.7959 81.8382 57.5073 81.1809 57.5073 80.3691ZM55.9175 68.4687C55.041 68.4687 54.3277 69.1274 54.3277 69.9378C54.3277 70.7477 55.041 71.4069 55.9175 71.4069C56.7941 71.4069 57.5079 70.7477 57.5079 69.9378C57.5079 69.1274 56.7941 68.4687 55.9175 68.4687ZM57.5073 59.5064C57.5073 58.6948 56.7959 58.0373 55.9175 58.0373C55.039 58.0373 54.3277 58.6948 54.3277 59.5064C54.3277 60.3174 55.0392 60.9755 55.9175 60.9755C56.7959 60.9755 57.5073 60.3174 57.5073 59.5064ZM90.5211 36.6454C82.3596 36.6454 75.7434 43.2666 75.744 51.4343C75.744 59.602 82.3602 66.2232 90.5217 66.2232C98.6832 66.2232 105.299 59.602 105.299 51.4343C105.29 43.2708 98.6793 36.6547 90.5211 36.6454ZM90.4526 50.3764C92.9917 50.3772 95.1149 52.3074 95.3573 54.8365C95.5997 57.3664 93.8823 59.6659 91.3895 60.1486V61.5318C91.3895 62.1117 90.9199 62.5819 90.3402 62.5819C89.7605 62.5819 89.2909 62.1117 89.2909 61.5318V60.0994C87.0828 59.5609 85.528 57.5826 85.5252 55.3083C85.5298 55.0329 85.6424 54.7703 85.8387 54.5772C86.035 54.3841 86.2992 54.2758 86.5745 54.2758C86.8497 54.2758 87.114 54.3841 87.3103 54.5772C87.5066 54.7703 87.6191 55.0329 87.6238 55.3083C87.6238 56.8718 88.8905 58.1392 90.4526 58.1392C92.0148 58.1392 93.2815 56.8718 93.2815 55.3083C93.2815 53.7443 92.0148 52.4768 90.4526 52.4768C87.9575 52.4768 85.8566 50.6103 85.5602 48.1316C85.264 45.6523 86.866 43.3428 89.2909 42.7538V41.4295C89.2955 41.154 89.4081 40.8914 89.6044 40.6983C89.8007 40.5052 90.0649 40.3969 90.3402 40.3969C90.6155 40.3969 90.8797 40.5052 91.076 40.6983C91.2723 40.8914 91.3849 41.154 91.3895 41.4295V42.7046C93.7048 43.1564 95.3772 45.1851 95.3801 47.5456C95.3754 47.8211 95.2629 48.0836 95.0666 48.2768C94.8703 48.4699 94.606 48.5781 94.3308 48.5781C94.0555 48.5781 93.7913 48.4699 93.595 48.2768C93.3987 48.0836 93.2861 47.8211 93.2815 47.5456C93.2797 46.0015 92.0418 44.7427 90.4983 44.7169C90.4139 44.7304 90.3282 44.7332 90.2431 44.7252C88.7263 44.8383 87.5704 46.131 87.6273 47.6523C87.6835 49.1728 88.9319 50.3766 90.4532 50.3766L90.4526 50.3764ZM73.5855 102.006C72.7204 101.146 72.0337 100.123 71.5647 98.9967C71.0958 97.8702 70.8538 96.6621 70.8528 95.4417V91.2348H35.7754V95.4593C35.7929 99.4242 39.0078 102.631 42.9696 102.636H74.296C74.0388 102.45 73.8008 102.239 73.5857 102.006L73.5855 102.006Z" fill="#026848"/>
<ellipse cx="90.7026" cy="51.1773" rx="11.9955" ry="12.0045" fill="#026848"/>
<path fill-rule="evenodd" clip-rule="evenodd" d="M91.3339 45.4909C91.3339 45.2675 91.2453 45.0532 91.0874 44.8952C90.9295 44.7373 90.7154 44.6485 90.4922 44.6485C90.2689 44.6485 90.0548 44.7373 89.8969 44.8952C89.7391 45.0532 89.6504 45.2675 89.6504 45.4909V46.3333C88.7573 46.3333 87.9009 46.6884 87.2694 47.3203C86.638 47.9522 86.2832 48.8093 86.2832 49.703C86.2832 50.5967 86.638 51.4538 87.2694 52.0858C87.9009 52.7177 88.7573 53.0727 89.6504 53.0727V56.4424C89.3021 56.4425 88.9625 56.3345 88.6781 56.1334C88.3937 55.9323 88.1786 55.648 88.0623 55.3195C87.9851 55.1127 87.8298 54.9445 87.6299 54.8512C87.43 54.7578 87.2015 54.7467 86.9935 54.8202C86.7855 54.8937 86.6146 55.046 86.5177 55.2443C86.4208 55.4426 86.4055 55.6711 86.4751 55.8805C86.7074 56.5376 87.1374 57.1064 87.7061 57.5088C88.2747 57.9111 88.954 58.1272 89.6504 58.1273V58.9697C89.6504 59.1931 89.7391 59.4074 89.8969 59.5654C90.0548 59.7234 90.2689 59.8121 90.4922 59.8121C90.7154 59.8121 90.9295 59.7234 91.0874 59.5654C91.2453 59.4074 91.3339 59.1931 91.3339 58.9697V58.1273C92.227 58.1273 93.0834 57.7723 93.7149 57.1403C94.3464 56.5084 94.7011 55.6513 94.7011 54.7576C94.7011 53.8639 94.3464 53.0068 93.7149 52.3749C93.0834 51.7429 92.227 51.3879 91.3339 51.3879V48.0182C91.6822 48.0181 92.0218 48.1261 92.3062 48.3272C92.5906 48.5283 92.8057 48.8127 92.922 49.1411C92.9992 49.3479 93.1545 49.5161 93.3544 49.6095C93.5543 49.7028 93.7828 49.714 93.9908 49.6404C94.1988 49.5669 94.3697 49.4146 94.4666 49.2163C94.5636 49.018 94.5788 48.7896 94.5092 48.5801C94.2769 47.9231 93.8469 47.3542 93.2783 46.9519C92.7096 46.5495 92.0304 46.3334 91.3339 46.3333V45.4909ZM89.6504 48.0182C89.2039 48.0182 88.7756 48.1957 88.4599 48.5117C88.1442 48.8276 87.9668 49.2562 87.9668 49.703C87.9668 50.1499 88.1442 50.5784 88.4599 50.8944C88.7756 51.2104 89.2039 51.3879 89.6504 51.3879V48.0182ZM91.3339 53.0727V56.4424C91.7805 56.4424 92.2087 56.2649 92.5244 55.949C92.8402 55.633 93.0175 55.2044 93.0175 54.7576C93.0175 54.3107 92.8402 53.8822 92.5244 53.5662C92.2087 53.2503 91.7805 53.0727 91.3339 53.0727Z" fill="white"/>
<path d="M76.3232 60.4812H63.6143C63.3391 60.4765 63.0767 60.3638 62.8837 60.1674C62.6907 59.971 62.5826 59.7065 62.5826 59.4311C62.5826 59.1556 62.6907 58.8911 62.8837 58.6947C63.0767 58.4983 63.3391 58.3856 63.6143 58.3809H75.1733C74.1591 56.181 73.6373 53.7859 73.6443 51.363C73.6478 50.1929 73.769 49.0261 74.0062 47.8798H45.7659L45.4883 89.1343H71.9549C72.0869 89.1289 72.2185 89.151 72.3415 89.199C72.4645 89.2471 72.5762 89.3201 72.6697 89.4134C72.7632 89.5067 72.8364 89.6184 72.8847 89.7414C72.9329 89.8644 72.9553 89.9961 72.9503 90.1281V95.4426C72.9698 99.4162 76.1903 102.629 80.1611 102.636H80.1845C84.14 102.627 87.3411 99.4168 87.3411 95.4591V68.0223C85.0839 67.5946 82.9397 66.7037 81.0434 65.4058C79.1472 64.1079 77.5401 62.4313 76.3232 60.4812ZM55.9165 83.9387C53.8829 83.9387 52.2281 82.3373 52.2281 80.3688C52.2281 78.401 53.8829 76.7995 55.9165 76.7995C57.9502 76.7995 59.6056 78.401 59.6056 80.3688C59.6056 82.3373 57.9506 83.9387 55.9165 83.9387ZM55.9165 73.5068C53.8829 73.5068 52.2281 71.9058 52.2281 69.9374C52.2281 67.9692 53.8829 66.3681 55.9165 66.3681C57.9502 66.3681 59.6056 67.9691 59.6056 69.9374C59.6056 71.9052 57.9506 73.5068 55.9165 73.5068ZM55.9165 63.0754C53.8829 63.0754 52.2281 61.4738 52.2281 59.5061C52.2281 57.5379 53.8829 55.9361 55.9165 55.9361C57.9502 55.9361 59.6056 57.5371 59.6056 59.5055C59.6056 61.4738 57.9506 63.0754 55.9165 63.0754ZM66.9755 81.4834H63.6143C63.3391 81.4788 63.0767 81.3661 62.8837 81.1697C62.6907 80.9732 62.5826 80.7088 62.5826 80.4333C62.5826 80.1578 62.6907 79.8934 62.8837 79.697C63.0767 79.5005 63.3391 79.3879 63.6143 79.3832H66.9755C67.2507 79.3879 67.5131 79.5005 67.7061 79.697C67.8991 79.8934 68.0073 80.1578 68.0073 80.4333C68.0073 80.7088 67.8991 80.9732 67.7061 81.1697C67.5131 81.3661 67.2507 81.4788 66.9755 81.4834ZM68.0248 69.9322C68.0248 70.5123 67.5552 70.9823 66.9755 70.9823H63.6143C63.3391 70.9776 63.0767 70.865 62.8837 70.6685C62.6907 70.4721 62.5826 70.2077 62.5826 69.9322C62.5826 69.6567 62.6907 69.3923 62.8837 69.1958C63.0767 68.9994 63.3391 68.8867 63.6143 68.8821H66.9755C67.5552 68.8821 68.0248 69.3527 68.0248 69.9322Z" fill="#026848"/>
<ellipse cx="55.7671" cy="59.6015" rx="2.73582" ry="2.73788" fill="white"/>
<ellipse cx="55.7671" cy="69.7106" rx="2.73582" ry="2.73788" fill="white"/>
<ellipse cx="55.7671" cy="80.2409" rx="2.73582" ry="2.73788" fill="white"/>
<path d="M55.9775 79.1879C56.6574 79.1879 57.2402 79.7711 57.2402 80.4515C57.2402 81.1319 56.6574 81.7151 55.9775 81.7151C55.2976 81.7151 54.7148 81.1319 54.7148 80.4515C54.7148 79.7711 55.2976 79.1879 55.9775 79.1879Z" fill="#026848"/>
<path d="M55.9775 68.6576C56.6574 68.6576 57.2402 69.2408 57.2402 69.9212C57.2402 70.6017 56.6574 71.1849 55.9775 71.1849C55.2976 71.1849 54.7148 70.6017 54.7148 69.9212C54.7148 69.2408 55.2976 68.6576 55.9775 68.6576Z" fill="#026848"/>
<path d="M55.9775 58.1273C56.6574 58.1273 57.2402 58.7105 57.2402 59.3909C57.2402 60.0713 56.6574 60.6545 55.9775 60.6545C55.2976 60.6545 54.7148 60.0713 54.7148 59.3909C54.7148 58.7105 55.2976 58.1273 55.9775 58.1273Z" fill="#026848"/>
<path d="M36.7869 79.3758C36.7869 77.9555 35.648 76.6772 34.0819 76.6772C32.5159 76.6772 31.377 77.8135 31.377 79.3758C31.377 80.9382 32.5159 82.0744 34.0819 82.0744C35.648 82.0744 36.7869 80.7961 36.7869 79.3758Z" fill="#026848"/>
<path d="M90.8156 99.1309C89.819 99.1309 88.9648 99.9832 88.9648 100.977C88.9648 101.972 89.819 102.824 90.8156 102.824C91.8122 102.824 92.6664 101.972 92.6664 100.977C92.6664 99.9832 91.8122 99.1309 90.8156 99.1309Z" fill="#026848"/>
<path d="M108.798 64.8849C108.798 62.8965 107.232 61.3341 105.239 61.3341C103.246 61.3341 101.68 62.8965 101.68 64.8849C101.68 66.8734 103.246 68.4357 105.239 68.4357C107.232 68.4357 108.798 66.8734 108.798 64.8849Z" fill="#026848"/>
<path d="M41.4543 53.1008C42.4508 53.1008 43.305 53.953 43.305 54.9472C43.305 55.9415 42.4508 56.7936 41.4543 56.7936C40.4577 56.7936 39.6035 55.9415 39.6035 54.9472C39.6035 53.953 40.4577 53.1008 41.4543 53.1008Z" fill="#026848"/>
<path d="M59.0304 34.7638C60.027 34.7638 60.8812 35.616 60.8812 36.6102C60.8812 37.6044 60.027 38.4566 59.0304 38.4566C58.0339 38.4566 57.1797 37.6044 57.1797 36.6102C57.1797 35.616 58.0339 34.7638 59.0304 34.7638Z" fill="#026848"/>
<path d="M94.5558 72.9348C95.5524 72.9348 96.4066 73.787 96.4066 74.7812C96.4066 75.7754 95.5524 76.6276 94.5558 76.6276C93.5593 76.6276 92.7051 75.7754 92.7051 74.7812C92.7051 73.787 93.5593 72.9348 94.5558 72.9348Z" fill="#026848"/>
<path d="M43.3389 105.822C44.3355 105.822 45.1897 106.674 45.1897 107.669C45.1897 108.663 44.3355 109.515 43.3389 109.515C42.3424 109.515 41.4882 108.663 41.4882 107.669C41.3458 106.674 42.2 105.822 43.3389 105.822Z" fill="#026848"/>
<path d="M94.5714 31.1138C95.568 31.1138 96.4222 31.9659 96.4222 32.9602C96.4222 33.9544 95.568 34.8066 94.5714 34.8066C93.5748 34.8066 92.7206 33.9544 92.7206 32.9602C92.5782 31.9659 93.4325 31.1138 94.5714 31.1138Z" fill="#026848"/>
</svg>
