<svg width="70" height="70" viewBox="0 0 70 70" fill="none" xmlns="http://www.w3.org/2000/svg">
<rect width="70" height="70" rx="6" fill="#F1F8F5"/>
<path d="M50.2 20H19.8C17.71 20 16.019 21.71 16.019 23.8L16 46.6C16 48.69 17.71 50.4 19.8 50.4H50.2C52.29 50.4 54 48.69 54 46.6V23.8C54 21.71 52.29 20 50.2 20ZM49.44 28.075L36.007 36.473C35.399 36.853 34.601 36.853 33.993 36.473L20.56 28.075C20.3695 27.9681 20.2026 27.8236 20.0696 27.6503C19.9365 27.477 19.84 27.2785 19.7859 27.0668C19.7318 26.8551 19.7212 26.6347 19.7547 26.4188C19.7882 26.2029 19.8652 25.996 19.981 25.8108C20.0968 25.6255 20.249 25.4656 20.4284 25.3409C20.6077 25.2161 20.8106 25.1291 21.0245 25.085C21.2385 25.0409 21.4592 25.0406 21.6733 25.0843C21.8874 25.128 22.0904 25.2146 22.27 25.339L35 33.3L47.73 25.339C47.9096 25.2146 48.1126 25.128 48.3267 25.0843C48.5408 25.0406 48.7615 25.0409 48.9755 25.085C49.1894 25.1291 49.3923 25.2161 49.5716 25.3409C49.751 25.4656 49.9032 25.6255 50.019 25.8108C50.1348 25.996 50.2118 26.2029 50.2453 26.4188C50.2788 26.6347 50.2682 26.8551 50.2141 27.0668C50.16 27.2785 50.0635 27.477 49.9304 27.6503C49.7974 27.8236 49.6305 27.9681 49.44 28.075Z" fill="#026848"/>
</svg>
