<svg width="126" height="124" viewBox="0 0 126 124" fill="none" xmlns="http://www.w3.org/2000/svg">
<path d="M126 0H0V124H126V0Z" fill="white"/>
<path d="M79.4357 42.7812C79.4357 43.1532 79.0621 43.5252 78.6886 43.5252H48.8072C48.4337 43.5252 48.0602 43.1532 48.0602 42.7812V38.9372H40.0918V96.3492H87.2795V38.8132H79.3112V42.7812H79.4357ZM61.3823 54.3132H66.435C66.8085 54.3132 67.1821 54.6852 67.1821 55.0572C67.1821 55.4292 66.8085 55.8012 66.435 55.8012H61.3823C61.0088 55.8012 60.6353 55.4292 60.6353 55.0572C60.5108 54.6852 60.8843 54.3132 61.3823 54.3132ZM58.6678 67.8292L57.0246 69.1932C57.2736 69.9372 57.3981 70.6812 57.3981 71.4252C57.3981 74.8972 54.659 77.6252 51.0483 77.6252C47.5622 77.6252 44.6985 74.8972 44.6985 71.4252C44.6985 71.0532 45.072 70.6812 45.4456 70.6812C45.8191 70.6812 46.1926 71.0532 46.1926 71.4252C46.1926 74.0292 48.3092 76.1372 50.9238 76.1372C53.5384 76.1372 55.655 74.0292 55.655 71.4252C55.655 71.0532 55.655 70.5572 55.5305 70.1852L52.2934 72.7892C52.1689 72.9132 51.9199 72.9132 51.7954 72.9132C51.5464 72.9132 51.4218 72.7892 51.2973 72.6652L49.2727 70.6425C49.0236 70.3945 49.0236 69.8985 49.2727 69.5265C49.5217 69.2785 50.0197 69.2785 50.3932 69.5265L51.9199 71.0532L54.908 68.6972C54.0365 67.4572 52.6669 66.7132 51.0483 66.7132C50.6748 66.7132 50.3013 66.3412 50.3013 65.9692C50.3013 65.5972 50.6748 65.2252 51.0483 65.2252C53.1649 65.2252 54.908 66.2172 56.1531 67.8292L57.5473 66.7132C57.9208 66.4652 58.4188 66.4652 58.6678 66.8372C59.0413 67.0852 59.0413 67.5812 58.6678 67.8292ZM58.8637 52.2052L57.0246 53.6932C57.2736 54.4372 57.3981 55.1812 57.3981 55.9252C57.3981 59.3972 54.659 62.1252 51.0483 62.1252C47.5622 62.1252 44.6985 59.3972 44.6985 55.9252C44.6985 55.5532 45.072 55.1812 45.4456 55.1812C45.8191 55.1812 46.1926 55.5532 46.1926 55.9252C46.1926 58.5292 48.3092 60.6372 50.9238 60.6372C53.5384 60.6372 55.655 58.5292 55.655 55.9252C55.655 55.5532 55.655 55.0572 55.5305 54.6852L52.2934 57.2892C52.1689 57.4132 51.9199 57.4132 51.7954 57.4132C51.5464 57.4132 51.4218 57.2892 51.2973 57.1652L49.2727 55.1812C49.0236 54.9332 49.0236 54.4372 49.2727 54.0652C49.5217 53.6932 50.0197 53.8172 50.3932 54.0652L51.9199 55.5532L54.908 53.1972C54.0365 51.9572 52.6669 51.2132 51.0483 51.2132C50.6748 51.2132 50.3013 50.8412 50.3013 50.4692C50.3013 50.0972 50.6748 49.7252 51.0483 49.7252C53.1649 49.7252 54.908 50.7172 56.1531 52.3292L57.7432 51.0892C58.1167 50.8412 58.6147 50.8412 58.8637 51.2132C59.2372 51.4612 59.2372 51.9572 58.8637 52.2052ZM70.5177 91.5132H61.3823C61.0088 91.5132 60.6353 91.1412 60.6353 90.7692C60.6353 90.3972 61.0088 90.0252 61.3823 90.0252H70.5177C70.8912 90.0252 71.2647 90.3972 71.2647 90.7692C71.2647 91.1412 70.8912 91.5132 70.5177 91.5132ZM60.5108 86.1812C60.5108 85.8092 60.8843 85.4372 61.2578 85.4372H66.3105C66.684 85.4372 67.0575 85.8092 67.0575 86.1812C67.0575 86.5532 66.684 86.9252 66.3105 86.9252H61.2578C60.8843 86.9252 60.5108 86.5532 60.5108 86.1812ZM70.5177 76.0132H61.3823C61.0088 76.0132 60.6353 75.6412 60.6353 75.2692C60.6353 74.8972 61.0088 74.5252 61.3823 74.5252H70.5177C70.8912 74.5252 71.2647 74.8972 71.2647 75.2692C71.2647 75.6412 70.8912 76.0132 70.5177 76.0132ZM60.5108 70.6812C60.5108 70.3092 60.8843 69.9372 61.2578 69.9372H66.3105C66.684 69.9372 67.0575 70.3092 67.0575 70.6812C67.0575 71.0532 66.684 71.4252 66.3105 71.4252H61.2578C60.8843 71.4252 60.5108 71.0532 60.5108 70.6812ZM71.2647 59.7692C71.2647 60.1412 70.8912 60.5132 70.5177 60.5132H61.3823C61.0088 60.5132 60.6353 60.1412 60.6353 59.7692C60.6353 59.3972 61.0088 59.0252 61.3823 59.0252H70.5177C70.8912 59.0252 71.2647 59.3972 71.2647 59.7692Z" fill="#026848"/>
<path d="M77.941 35.7132H69.9727C69.5991 35.7132 69.2256 35.3412 69.2256 34.9692C69.2256 31.9932 66.7355 29.5132 63.6229 29.5132C60.6347 29.5132 58.0201 31.9932 58.0201 34.9692C58.0201 35.3412 57.6466 35.7132 57.2731 35.7132H49.3047V41.9132H77.692V35.7132H77.941Z" fill="#026848"/>
<path d="M96.8661 35.7139C96.8661 34.8459 96.119 34.1019 95.2475 34.1019C94.3759 34.1019 93.6289 34.8459 93.6289 35.7139C93.6289 36.5819 94.3759 37.3259 95.2475 37.3259C95.9945 37.3259 96.8661 36.5819 96.8661 35.7139Z" fill="#026848"/>
<path d="M96.8666 79.1131C95.9951 79.1131 95.248 79.8572 95.248 80.7252C95.248 81.5932 95.9951 82.3372 96.8666 82.3372C97.7382 82.3372 98.4852 81.5932 98.4852 80.7252C98.4852 79.8572 97.7382 79.1131 96.8666 79.1131Z" fill="#026848"/>
<path d="M31.5004 80.7244C30.2553 80.7244 29.1348 81.7164 29.1348 83.0804C29.1348 84.3204 30.1308 85.4364 31.5004 85.4364C32.87 85.4364 33.866 84.4444 33.866 83.0804C33.866 81.7164 32.7454 80.7244 31.5004 80.7244Z" fill="#026848"/>
<path d="M36.2309 31.1244C34.9858 31.1244 33.8652 32.1164 33.8652 33.4804C33.8652 34.8444 34.8613 35.8364 36.2309 35.8364C37.6004 35.8364 38.5965 34.8444 38.5965 33.4804C38.5965 32.1164 37.4759 31.1244 36.2309 31.1244Z" fill="#026848"/>
</svg>
