<svg width="124" height="122" viewBox="0 0 124 122" fill="none" xmlns="http://www.w3.org/2000/svg">
<rect width="124" height="122" fill="white"/>
<path fill-rule="evenodd" clip-rule="evenodd" d="M82.4992 58.4166C86.0719 62.3708 88.7354 65.8015 90.4895 68.8775C96.9133 80.1429 87.7749 91.585 75.5363 91.379C63.2978 91.585 54.1593 80.1429 60.5831 68.8775C62.3373 65.8015 65.0009 62.3708 68.5735 58.4166C69.0102 58.5547 69.4655 58.6248 69.9236 58.6245H81.1489C81.6192 58.6245 82.0728 58.5515 82.4992 58.4166ZM37.0674 30.3151C33.9849 30.3151 31.4629 32.8341 31.4629 35.9128V76.8347C31.4629 79.9136 33.9849 82.4325 37.0674 82.4325H57.7062C55.689 77.6184 56.2993 72.4099 58.8695 67.9026C59.3945 66.9819 59.9704 66.0695 60.5844 65.168C60.2292 64.9385 59.9933 64.5394 59.9933 64.0869V62.414C59.9933 61.7052 60.5721 61.1271 61.2817 61.1271H63.6185C64.663 59.8449 65.7497 58.5967 66.8373 57.3919C66.515 57.0865 66.2396 56.7354 66.0198 56.3498H61.2817C60.5721 56.3498 59.9933 55.7717 59.9933 55.0629V53.3899C59.9933 52.6811 60.5721 52.1031 61.2817 52.1031H65.9277C66.329 51.3241 66.9481 50.6783 67.7098 50.2441L66.3709 48.9069C65.5559 48.093 65.1154 47.0434 65.0486 45.9745H38.9356C38.2259 45.9745 37.6472 45.3964 37.6472 44.6876V39.6367C37.6472 38.9279 38.2259 38.3498 38.9356 38.3498H67.281C67.9906 38.3498 68.5694 38.9279 68.5694 39.6367V41.2561C69.4786 41.0477 70.4457 41.1171 71.3295 41.4791C71.9271 40.0505 73.2234 39.0123 74.7538 38.7448V35.9128C74.7538 32.8341 72.2317 30.3151 69.1492 30.3151H37.0674ZM69.9237 56.6546C68.5397 56.6546 67.4076 55.5238 67.4076 54.1415C67.4076 52.7594 68.5398 51.6286 69.9237 51.6286H81.149C82.533 51.6286 83.6652 52.7594 83.6652 54.1416C83.6652 55.5237 82.533 56.6546 81.149 56.6546H69.9237ZM40.1193 52.1031H41.2334C41.943 52.1031 42.5218 52.6811 42.5218 53.3899V55.0628C42.5218 55.7716 41.943 56.3497 41.2334 56.3497H40.1193C39.4097 56.3497 38.8309 55.7716 38.8309 55.0628V53.3899C38.8309 52.6811 39.4097 52.1031 40.1193 52.1031ZM50.7005 70.1511C49.9909 70.1511 49.4121 70.7292 49.4121 71.438V73.1109C49.4121 73.8197 49.9909 74.3977 50.7005 74.3977H51.8146C52.5242 74.3977 53.103 73.8197 53.103 73.1109V71.438C53.103 70.7292 52.5242 70.1511 51.8146 70.1511H50.7005ZM40.1193 70.1511H41.2334C41.943 70.1511 42.5218 70.7292 42.5218 71.438V73.1109C42.5218 73.8197 41.943 74.3977 41.2334 74.3977H40.1193C39.4097 74.3977 38.8309 73.8197 38.8309 73.1109V71.438C38.8309 70.7292 39.4097 70.1511 40.1193 70.1511ZM50.7005 61.127C49.9909 61.127 49.4121 61.7051 49.4121 62.4139V64.0868C49.4121 64.7956 49.9909 65.3736 50.7005 65.3736H51.8146C52.5242 65.3736 53.103 64.7956 53.103 64.0868V62.4139C53.103 61.7051 52.5242 61.127 51.8146 61.127H50.7005ZM40.1193 61.127H41.2334C41.943 61.127 42.5218 61.7051 42.5218 62.4139V64.0868C42.5218 64.7956 41.943 65.3736 41.2334 65.3736H40.1193C39.4097 65.3736 38.8309 64.7956 38.8309 64.0868V62.4139C38.8309 61.7052 39.4097 61.127 40.1193 61.127ZM50.7005 52.1031H51.8146C52.5242 52.1031 53.103 52.6811 53.103 53.3899V55.0628C53.103 55.7716 52.5242 56.3497 51.8146 56.3497H50.7005C49.9909 56.3497 49.4121 55.7716 49.4121 55.0628V53.3899C49.4121 52.6811 49.9909 52.1031 50.7005 52.1031ZM75.4073 79.5608C74.6511 79.5411 73.9171 79.3366 73.3319 78.9473C72.8023 78.5951 72.3978 78.0798 72.2288 77.4029C72.193 77.2576 72.1289 77.1208 72.0402 77.0002C71.9514 76.8797 71.8398 76.7778 71.7116 76.7003C71.5835 76.6228 71.4413 76.5713 71.2932 76.5488C71.1451 76.5262 70.994 76.5329 70.8485 76.5687C70.703 76.6044 70.566 76.6684 70.4453 76.7571C70.3246 76.8457 70.2226 76.9572 70.145 77.0852C70.0675 77.2132 70.0159 77.3552 69.9933 77.5031C69.9707 77.651 69.9775 77.8019 70.0132 77.9472C70.3324 79.2258 71.0872 80.1926 72.0723 80.8479C72.7453 81.2956 73.5268 81.5914 74.3452 81.7356V82.6222C74.3483 82.923 74.4701 83.2105 74.6843 83.4221C74.8984 83.6338 75.1874 83.7525 75.4887 83.7525C75.7899 83.7525 76.079 83.6338 76.2931 83.4221C76.5072 83.2105 76.6291 82.923 76.6322 82.6222V81.7574C77.6267 81.606 78.64 81.2434 79.4356 80.6406C80.3916 79.916 81.0276 78.8785 80.9944 77.4862C80.9919 77.346 80.9828 77.206 80.9669 77.0667C80.7815 75.541 79.9552 74.5479 78.8593 73.8872C77.8968 73.3067 76.7425 73.0176 75.6842 72.8441C74.921 72.7189 74.117 72.5071 73.5283 72.1232C73.072 71.8258 72.7449 71.3951 72.7142 70.7655C72.681 70.0841 72.9789 69.5344 73.4481 69.1534C73.8157 68.8549 74.2846 68.6475 74.793 68.5453C74.9998 68.5038 75.2097 68.4803 75.4206 68.4749C75.4705 68.4779 75.5206 68.4776 75.5705 68.474C75.8515 68.4781 76.1347 68.5141 76.4112 68.5841C77.2612 68.7993 78.0351 69.3589 78.4428 70.3284C78.687 70.9099 79.357 71.1835 79.9391 70.9396C80.5213 70.6957 80.7952 70.0264 80.551 69.445C79.8334 67.7379 78.467 66.7514 76.965 66.3713C76.8549 66.3433 76.7439 66.3188 76.6322 66.2978V65.4128C76.6268 65.1134 76.5039 64.8282 76.2901 64.6184C76.0762 64.4086 75.7884 64.291 75.4887 64.291C75.1889 64.291 74.9011 64.4086 74.6873 64.6184C74.4734 64.8282 74.3506 65.1134 74.3452 65.4128V66.3149C73.4787 66.4893 72.6651 66.8546 72.0098 67.3867C71.0027 68.2046 70.3641 69.3921 70.4361 70.8727C70.5083 72.3604 71.2516 73.3582 72.2864 74.0329C73.1885 74.6211 74.2964 74.9254 75.318 75.0929C76.1385 75.2274 77.0146 75.4401 77.6801 75.8414C78.2125 76.1624 78.6124 76.6316 78.6978 77.3346C78.7091 77.4283 78.7153 77.4964 78.7163 77.5398C78.7296 78.0988 78.4619 78.5247 78.0598 78.8294C77.5565 79.2108 76.8496 79.4357 76.1428 79.5214C75.9504 79.5447 75.7822 79.558 75.6397 79.5613L75.5853 79.5623C75.5531 79.5596 75.5209 79.5582 75.4886 79.5582C75.4615 79.558 75.4343 79.5589 75.4073 79.5608ZM69.913 49.6588L67.7655 47.5139C66.7599 46.5095 66.7599 44.866 67.7655 43.8617C68.6208 43.0074 69.9748 42.8631 70.9925 43.5155C71.3706 43.7578 71.8047 43.7965 72.2195 43.625C72.6343 43.4534 72.9139 43.1196 73.0097 42.6812C73.2631 41.5219 74.3023 40.6469 75.5363 40.6466C76.7479 40.6466 77.8048 41.4997 78.0631 42.6812C78.1589 43.1196 78.4384 43.4534 78.8532 43.625C79.2683 43.7967 79.7023 43.7578 80.0801 43.5155C81.08 42.8746 82.4346 42.9902 83.3071 43.8615C84.3127 44.8659 84.3127 46.5096 83.3071 47.5139L81.1596 49.6588L81.1489 49.6587H69.9236L69.913 49.6588Z" fill="#026848"/>
<ellipse cx="74.9557" cy="75.9727" rx="12.7701" ry="12.7545" fill="#026848"/>
<path fill-rule="evenodd" clip-rule="evenodd" d="M76.6215 69.503C76.6215 69.3069 76.5435 69.1188 76.4046 68.9802C76.2658 68.8415 76.0775 68.7636 75.8812 68.7636C75.6848 68.7636 75.4965 68.8415 75.3577 68.9802C75.2189 69.1188 75.1409 69.3069 75.1409 69.503V70.2424C74.3555 70.2424 73.6023 70.554 73.047 71.1087C72.4917 71.6633 72.1797 72.4156 72.1797 73.2C72.1797 73.9844 72.4917 74.7366 73.047 75.2913C73.6023 75.846 74.3555 76.1576 75.1409 76.1576V79.1151C74.8346 79.1152 74.5359 79.0204 74.2858 78.8439C74.0357 78.6674 73.8465 78.4178 73.7443 78.1295C73.6764 77.948 73.5398 77.8004 73.364 77.7185C73.1882 77.6365 72.9873 77.6268 72.8043 77.6913C72.6214 77.7558 72.4712 77.8895 72.3859 78.0635C72.3007 78.2376 72.2872 78.4381 72.3485 78.622C72.5527 79.1986 72.9309 79.6979 73.431 80.0511C73.9311 80.4042 74.5284 80.5939 75.1409 80.5939V81.3333C75.1409 81.5294 75.2189 81.7175 75.3577 81.8561C75.4965 81.9948 75.6848 82.0727 75.8812 82.0727C76.0775 82.0727 76.2658 81.9948 76.4046 81.8561C76.5435 81.7175 76.6215 81.5294 76.6215 81.3333V80.5939C77.4068 80.5939 78.16 80.2823 78.7154 79.7277C79.2707 79.173 79.5827 78.4207 79.5827 77.6363C79.5827 76.8519 79.2707 76.0997 78.7154 75.545C78.16 74.9904 77.4068 74.6788 76.6215 74.6788V71.7212C76.9277 71.7211 77.2264 71.8159 77.4765 71.9924C77.7266 72.1689 77.9158 72.4185 78.0181 72.7068C78.086 72.8883 78.2225 73.0359 78.3983 73.1178C78.5741 73.1998 78.7751 73.2096 78.958 73.145C79.1409 73.0805 79.2912 72.9468 79.3765 72.7728C79.4617 72.5987 79.4751 72.3982 79.4139 72.2144C79.2096 71.6377 78.8314 71.1384 78.3314 70.7853C77.8313 70.4321 77.2339 70.2425 76.6215 70.2424V69.503ZM75.1409 71.7212C74.7482 71.7212 74.3716 71.877 74.0939 72.1543C73.8163 72.4316 73.6603 72.8078 73.6603 73.2C73.6603 73.5922 73.8163 73.9683 74.0939 74.2456C74.3716 74.523 74.7482 74.6788 75.1409 74.6788V71.7212ZM76.6215 76.1576V79.1151C77.0142 79.1151 77.3908 78.9593 77.6684 78.682C77.9461 78.4047 78.1021 78.0285 78.1021 77.6363C78.1021 77.2441 77.9461 76.868 77.6684 76.5907C77.3908 76.3134 77.0142 76.1576 76.6215 76.1576Z" fill="white"/>
<path d="M30.9811 68.4922C30.9811 67.1942 29.9382 66.0261 28.5042 66.0261C27.0702 66.0261 26.0273 67.0644 26.0273 68.4922C26.0273 69.92 27.0702 70.9584 28.5042 70.9584C29.9382 70.9584 30.9811 69.7902 30.9811 68.4922Z" fill="#026848"/>
<path d="M80.5873 90.5283C79.6747 90.5283 78.8926 91.3071 78.8926 92.2157C78.8926 93.1243 79.6747 93.9031 80.5873 93.9031C81.4998 93.9031 82.282 93.1243 82.282 92.2157C82.282 91.3071 81.4998 90.5283 80.5873 90.5283Z" fill="#026848"/>
<path d="M88.8658 38.5642C88.8658 36.747 87.4318 35.3192 85.6067 35.3192C83.7816 35.3192 82.3477 36.747 82.3477 38.5642C82.3477 40.3814 83.7816 41.8091 85.6067 41.8091C87.4318 41.8091 88.8658 40.3814 88.8658 38.5642Z" fill="#026848"/>
<path d="M29.1048 41.8694C30.0174 41.8694 30.7995 42.6482 30.7995 43.5568C30.7995 44.4653 30.0174 45.2441 29.1048 45.2441C28.1923 45.2441 27.4102 44.4653 27.4102 43.5568C27.4102 42.6482 28.1923 41.8694 29.1048 41.8694Z" fill="#026848"/>
<path d="M48.4525 23.579C49.365 23.579 50.1472 24.3578 50.1472 25.2663C50.1472 26.1749 49.365 26.9537 48.4525 26.9537C47.54 26.9537 46.7578 26.1749 46.7578 25.2663C46.7578 24.3578 47.54 23.579 48.4525 23.579Z" fill="#026848"/>
<path d="M89.9154 57.3987C90.8279 57.3987 91.6101 58.1775 91.6101 59.0861C91.6101 59.9947 90.8279 60.7735 89.9154 60.7735C89.0029 60.7735 88.2207 59.9947 88.2207 59.0861C88.2207 58.1775 89.0029 57.3987 89.9154 57.3987Z" fill="#026848"/>
<path d="M54.6874 83.6262C55.6 83.6262 56.3822 84.405 56.3822 85.3136C56.3822 86.2222 55.6 87.001 54.6874 87.001C53.7749 87.001 52.9927 86.2222 52.9927 85.3136C52.8624 84.405 53.6445 83.6262 54.6874 83.6262Z" fill="#026848"/>
<path d="M86.4648 29.1005C87.3773 29.1005 88.1595 29.8792 88.1595 30.7878C88.1595 31.6964 87.3773 32.4752 86.4648 32.4752C85.5523 32.4752 84.7701 31.6964 84.7701 30.7878C84.6397 29.8792 85.4219 29.1005 86.4648 29.1005Z" fill="#026848"/>
</svg>
