<svg width="70" height="70" viewBox="0 0 70 70" fill="none" xmlns="http://www.w3.org/2000/svg">
<rect width="70" height="70" rx="6" fill="#F1F8F5"/>
<path d="M49.8106 27.3757C48.0473 27.3757 46.5485 26.7815 45.3142 25.5929C44.08 24.4043 43.4628 22.961 43.4628 21.2631C43.4628 19.5651 44.08 18.1218 45.3142 16.9333C46.5485 15.7447 48.0473 15.1504 49.8106 15.1504C51.5739 15.1504 53.0726 15.7447 54.3069 16.9333C55.5412 18.1218 56.1584 19.5651 56.1584 21.2631C56.1584 22.961 55.5412 24.4043 54.3069 25.5929C53.0726 26.7815 51.5739 27.3757 49.8106 27.3757ZM18.0717 51.8264C16.9079 51.8264 15.9113 51.4271 15.0819 50.6284C14.2525 49.8296 13.8384 48.8706 13.8398 47.7513V23.3006C13.8398 22.18 14.2546 21.2203 15.084 20.4216C15.9135 19.6228 16.9094 19.2241 18.0717 19.2255H39.4426C39.3015 19.9047 39.231 20.5839 39.231 21.2631C39.231 21.9423 39.3015 22.6214 39.4426 23.3006C39.6894 24.3873 40.095 25.398 40.6592 26.3325C41.2235 27.2671 41.9111 28.0902 42.7222 28.802L34.9991 33.4884L20.8224 24.9307C20.2229 24.5571 19.6142 24.5401 18.9964 24.8797C18.3785 25.2193 18.0703 25.7287 18.0717 26.4079C18.0717 26.7135 18.1422 26.994 18.2833 27.2494C18.4244 27.5048 18.6359 27.7167 18.9181 27.8851L33.8882 36.9013C34.2409 37.1051 34.6112 37.207 34.9991 37.207C35.387 37.207 35.7573 37.1051 36.11 36.9013L46.1606 30.8396C46.7601 31.0433 47.3596 31.1962 47.9592 31.298C48.5587 31.3999 49.1758 31.4509 49.8106 31.4509C50.9391 31.4509 52.0499 31.2811 53.1432 30.9415C54.2364 30.6019 55.2415 30.0925 56.1584 29.4133V47.7513C56.1584 48.872 55.7436 49.8317 54.9142 50.6304C54.0848 51.4291 53.0889 51.8278 51.9265 51.8264H18.0717Z" fill="#026848"/>
<g filter="url(#filter0_d_176_1998)">
<path d="M21.2681 55.001C25.3123 55.001 28.5908 51.7225 28.5908 47.6782C28.5908 43.634 25.3123 40.3555 21.2681 40.3555C17.2238 40.3555 13.9453 43.634 13.9453 47.6782C13.9453 51.7225 17.2238 55.001 21.2681 55.001Z" fill="white"/>
<path d="M20.0129 51.6231C19.8741 51.6231 19.7406 51.57 19.6397 51.4748L16.8581 48.8502C16.7532 48.7512 16.6919 48.6146 16.6877 48.4705C16.6835 48.3263 16.7368 48.1864 16.8358 48.0815C16.9348 47.9766 17.0714 47.9154 17.2155 47.9112C17.3597 47.907 17.4996 47.9602 17.6045 48.0592L19.9828 50.3034L24.903 44.8815C24.9999 44.7747 25.1352 44.7108 25.2793 44.7038C25.4233 44.6968 25.5642 44.7473 25.671 44.8442C25.7778 44.9411 25.8417 45.0764 25.8487 45.2205C25.8557 45.3645 25.8052 45.5054 25.7083 45.6122L20.4154 51.4448C20.3669 51.4983 20.3081 51.5416 20.2426 51.5722C20.177 51.6027 20.1061 51.6199 20.0339 51.6227C20.0268 51.6229 20.0198 51.6231 20.0129 51.6231Z" fill="#026848"/>
</g>
<defs>
<filter id="filter0_d_176_1998" x="5.94531" y="36.3555" width="30.6445" height="30.6455" filterUnits="userSpaceOnUse" color-interpolation-filters="sRGB">
<feFlood flood-opacity="0" result="BackgroundImageFix"/>
<feColorMatrix in="SourceAlpha" type="matrix" values="0 0 0 0 0 0 0 0 0 0 0 0 0 0 0 0 0 0 127 0" result="hardAlpha"/>
<feOffset dy="4"/>
<feGaussianBlur stdDeviation="4"/>
<feComposite in2="hardAlpha" operator="out"/>
<feColorMatrix type="matrix" values="0 0 0 0 0 0 0 0 0 0 0 0 0 0 0 0 0 0 0.2 0"/>
<feBlend mode="normal" in2="BackgroundImageFix" result="effect1_dropShadow_176_1998"/>
<feBlend mode="normal" in="SourceGraphic" in2="effect1_dropShadow_176_1998" result="shape"/>
</filter>
</defs>
</svg>
