<svg width="14" height="19" viewBox="0 0 14 19" fill="none" xmlns="http://www.w3.org/2000/svg">
<path fill-rule="evenodd" clip-rule="evenodd" d="M12.25 7.12439C12.2524 8.26945 11.8911 9.38462 11.2198 10.3035L7 16.0311L2.78017 10.3035C2.28609 9.62402 1.95742 8.83492 1.82115 8.00103C1.68489 7.16713 1.74491 6.31223 1.9963 5.50653C2.24769 4.70084 2.68326 3.96735 3.26725 3.3663C3.85123 2.76525 4.56697 2.31381 5.35566 2.04903C6.14435 1.78426 6.9835 1.71373 7.80418 1.84321C8.62486 1.9727 9.40365 2.29852 10.0766 2.79392C10.7495 3.28931 11.2974 3.94013 11.6752 4.69293C12.0531 5.44574 12.25 6.27904 12.25 7.12439ZM14 7.12439C14 8.71572 13.4878 10.1835 12.6233 11.3687L8.09317 17.5155L7 19L5.90567 17.5155L1.37667 11.3687C0.717134 10.4631 0.278104 9.41116 0.0956506 8.29925C-0.0868032 7.18735 -0.00747378 6.04725 0.327121 4.97262C0.661716 3.89799 1.24203 2.91951 2.02037 2.11757C2.79872 1.31563 3.75289 0.713124 4.80447 0.359548C5.85607 0.00597209 6.97507 -0.0885792 8.06954 0.083663C9.16401 0.255905 10.2027 0.690025 11.1003 1.35035C11.9979 2.01068 12.7288 2.87837 13.2328 3.88214C13.7369 4.8859 13.9998 5.99708 14 7.12439ZM7 9.49951C7.61884 9.49951 8.21233 9.24928 8.64992 8.80385C9.0875 8.35843 9.33333 7.75431 9.33333 7.12439C9.33333 6.49447 9.0875 5.89035 8.64992 5.44492C8.21233 4.9995 7.61884 4.74927 7 4.74927C6.38116 4.74927 5.78767 4.9995 5.35008 5.44492C4.9125 5.89035 4.66667 6.49447 4.66667 7.12439C4.66667 7.75431 4.9125 8.35843 5.35008 8.80385C5.78767 9.24928 6.38116 9.49951 7 9.49951Z" fill="black"/>
</svg>
