<svg width="70" height="70" viewBox="0 0 70 70" fill="none" xmlns="http://www.w3.org/2000/svg">
<rect width="70" height="70" rx="6" fill="#F1F8F5"/>
<path d="M51.7833 54C52.4167 54 52.9444 53.7889 53.3667 53.3667C53.7889 52.9444 54 52.4167 54 51.7833V43.2333C54 42.7407 53.8417 42.3094 53.525 41.9392C53.2083 41.5691 52.8037 41.3319 52.3111 41.2278L45.0278 39.75C44.5352 39.6796 44.0334 39.724 43.5226 39.883C43.0117 40.042 42.5986 40.2792 42.2833 40.5944L37.3222 45.5556C34.6481 43.937 32.2028 42.0194 29.9861 39.8028C27.7694 37.5861 25.9222 35.2111 24.4444 32.6778L29.5111 27.5056C29.8278 27.1889 30.0304 26.8279 30.1191 26.4226C30.2078 26.0172 30.2162 25.569 30.1444 25.0778L28.7722 17.6889C28.7019 17.1963 28.4731 16.7917 28.0861 16.475C27.6991 16.1583 27.2593 16 26.7667 16H18.2167C17.5833 16 17.0556 16.2111 16.6333 16.6333C16.2111 17.0556 16 17.5833 16 18.2167C16 22.7556 17.0119 27.1804 19.0358 31.4913C21.0596 35.8022 23.7337 39.6198 27.058 42.9441C30.3823 46.2684 34.1999 48.9425 38.5108 50.9663C42.8217 52.9902 47.2459 54.0014 51.7833 54Z" fill="#026848"/>
</svg>
