<svg width="125" height="123" viewBox="0 0 125 123" fill="none" xmlns="http://www.w3.org/2000/svg">
<path d="M125 0H0V123H125V0Z" fill="white"/>
<path d="M46.8117 48.4621C48.0469 48.4621 49.1585 47.4781 49.1585 46.1251V39.2371H44.4648V46.1251C44.4648 47.3551 45.5765 48.4621 46.8117 48.4621Z" fill="#026848"/>
<path d="M53.1125 48.4621C54.3476 48.4621 55.4593 47.4781 55.4593 46.1251V39.2371H50.7656V46.1251C50.7656 47.3551 51.8773 48.4621 53.1125 48.4621Z" fill="#026848"/>
<path d="M59.2882 48.4621C60.5234 48.4621 61.6351 47.4781 61.6351 46.1251V39.2371H56.9414V46.1251C56.9414 47.3551 58.0531 48.4621 59.2882 48.4621Z" fill="#026848"/>
<path d="M65.5871 48.4621C66.8222 48.4621 67.9339 47.4781 67.9339 46.1251V39.2371H63.2402V46.1251C63.2402 47.3551 64.3519 48.4621 65.5871 48.4621Z" fill="#026848"/>
<path d="M34.3363 48.4621C35.5714 48.4621 36.6831 47.4781 36.6831 46.1251V39.2371H34.5833C33.2246 39.2371 32.1129 40.3441 32.1129 41.6971V46.1251C31.9894 47.3551 33.1011 48.4621 34.3363 48.4621Z" fill="#026848"/>
<path d="M40.6375 48.4621C41.8727 48.4621 42.9843 47.4781 42.9843 46.1251V39.2371H38.2906V46.1251C38.1671 47.3551 39.2788 48.4621 40.6375 48.4621Z" fill="#026848"/>
<path d="M69.416 46.1251C69.416 47.3551 70.4042 48.4621 71.7628 48.4621C72.998 48.4621 74.1097 47.4781 74.1097 46.1251V39.2371H69.416V46.1251Z" fill="#026848"/>
<path d="M43.7244 74.5379H31.9902V78.2279C31.9902 79.5809 33.1019 80.6879 34.4606 80.6879H57.682H67.0693H90.2907C91.6494 80.6879 92.761 79.5809 92.761 78.2279V74.5379H56.1997H43.7244Z" fill="#026848"/>
<path d="M84.3613 48.4621C85.5965 48.4621 86.7081 47.4781 86.7081 46.1251V39.2371H82.0144V46.1251C81.8909 47.3551 83.1261 48.4621 84.3613 48.4621Z" fill="#026848"/>
<path d="M78.0617 48.4621C79.2968 48.4621 80.4085 47.4781 80.4085 46.1251V39.2371H75.7148V46.1251C75.7148 47.3551 76.8265 48.4621 78.0617 48.4621Z" fill="#026848"/>
<path d="M90.2912 39.2371H88.1914V46.1251C88.1914 47.3551 89.1796 48.4621 90.5383 48.4621C91.7734 48.4621 92.8851 47.4781 92.8851 46.1251V41.6971C92.8851 40.3441 91.7734 39.2371 90.2912 39.2371Z" fill="#026848"/>
<path d="M87.4494 48.4621C86.7083 49.4461 85.5966 50.0611 84.3614 50.0611C83.1262 50.0611 82.0146 49.4461 81.2735 48.4621C80.5324 49.4461 79.4207 50.0611 78.1855 50.0611C76.9504 50.0611 75.8387 49.4461 75.0976 48.4621C74.3565 49.4461 73.2448 50.0611 72.0096 50.0611C70.7745 50.0611 69.6628 49.4461 68.9217 48.4621C68.1806 49.4461 67.0689 50.0611 65.8337 50.0611C64.5986 50.0611 63.4869 49.4461 62.7458 48.4621C62.0047 49.4461 60.893 50.0611 59.6579 50.0611C58.4227 50.0611 57.311 49.4461 56.5699 48.4621C55.8288 49.4461 54.7171 50.0611 53.482 50.0611C52.2468 50.0611 51.1351 49.4461 50.394 48.4621C49.6529 49.4461 48.5413 50.0611 47.3061 50.0611C46.0709 50.0611 44.9592 49.4461 44.2181 48.4621C43.477 49.4461 42.3654 50.0611 41.1302 50.0611C39.895 50.0611 38.7833 49.4461 38.0422 48.4621C37.3011 49.4461 36.1895 50.0611 34.9543 50.0611C34.0897 50.0611 33.225 49.8151 32.6074 49.3231V73.1851H43.3535L42.1183 65.4361H41.2537C40.8831 65.4361 40.5126 65.0671 40.5126 64.6981V60.0241C40.5126 59.6551 40.8831 59.2861 41.2537 59.2861H47.5531V57.6871C47.5531 55.9651 48.9118 54.6121 50.641 54.6121C52.3703 54.6121 53.729 55.9651 53.729 57.6871V59.2861H60.0284C60.3989 59.2861 60.7695 59.6551 60.7695 60.0241V64.6981C60.7695 65.0671 60.3989 65.4361 60.0284 65.4361H59.1638L57.9286 73.1851H93.6253V49.2001C93.0077 49.6921 92.143 49.9381 91.2784 49.9381C89.3021 49.9381 88.1905 49.3231 87.4494 48.4621ZM68.6746 69.9871H65.5867C65.2161 69.9871 64.8456 69.6181 64.8456 69.2491C64.8456 68.8801 65.2161 68.5111 65.5867 68.5111H68.6746C69.0452 68.5111 69.4158 68.8801 69.4158 69.2491C69.4158 69.6181 69.0452 69.9871 68.6746 69.9871ZM68.6746 65.3131H65.5867C65.2161 65.3131 64.8456 64.9441 64.8456 64.5751C64.8456 64.2061 65.2161 63.8371 65.5867 63.8371H68.6746C69.0452 63.8371 69.4158 64.2061 69.4158 64.5751C69.4158 64.9441 69.0452 65.3131 68.6746 65.3131ZM68.6746 60.7621H65.5867C65.2161 60.7621 64.8456 60.3931 64.8456 60.0241C64.8456 59.6551 65.2161 59.2861 65.5867 59.2861H68.6746C69.0452 59.2861 69.4158 59.6551 69.4158 60.0241C69.4158 60.3931 69.0452 60.7621 68.6746 60.7621ZM76.2553 69.9871H74.9741C74.6035 69.9871 74.2329 69.6181 74.2329 69.2491C74.2329 68.8801 74.6035 68.5111 74.9741 68.5111H76.2553C76.6259 68.5111 76.9964 68.8801 76.9964 69.2491C76.9964 69.6181 76.6259 69.9871 76.2553 69.9871ZM76.2553 65.3131H74.9741C74.6035 65.3131 74.2329 64.9441 74.2329 64.5751C74.2329 64.2061 74.6035 63.8371 74.9741 63.8371H76.2553C76.6259 63.8371 76.9964 64.2061 76.9964 64.5751C76.9964 64.9441 76.6259 65.3131 76.2553 65.3131ZM76.2553 60.7621H74.9741C74.6035 60.7621 74.2329 60.3931 74.2329 60.0241C74.2329 59.6551 74.6035 59.2861 74.9741 59.2861H76.2553C76.6259 59.2861 76.9964 59.6551 76.9964 60.0241C76.9964 60.3931 76.6259 60.7621 76.2553 60.7621Z" fill="#026848"/>
<path d="M55.8679 73.0545L57.0891 65.2273H53.4256C53.4256 66.9666 52.0823 68.3333 50.3727 68.3333C48.663 68.3333 47.3198 66.9666 47.3198 65.2273H43.6562L44.8774 73.0545H55.8679Z" fill="#026848"/>
<path d="M59.3276 64.4818V60.7545H53.3574V64.4818H58.5135H59.3276Z" fill="#026848"/>
<path d="M52.0516 65.4576V57.5424C52.0516 56.6629 51.2766 55.9091 50.3724 55.9091C49.4683 55.9091 48.6934 56.6629 48.6934 57.5424V65.4576C48.6934 66.337 49.4683 67.0909 50.3724 67.0909C51.2766 67.0909 52.0516 66.337 52.0516 65.4576Z" fill="#026848"/>
<path d="M47.3471 60.7622H41.377V64.4895H42.3268H47.3471V60.7622Z" fill="#026848"/>
<path d="M71.7629 89.9124H66.2045V82.1634H58.2994V89.9124H52.7411C52.3706 89.9124 52 90.2815 52 90.6505C52 91.0195 52.3706 91.3884 52.7411 91.3884H71.5158C71.8864 91.3884 72.2569 91.0195 72.2569 90.6505C72.6275 90.2815 72.2569 89.9124 71.7629 89.9124Z" fill="#026848"/>
<path d="M87.4504 86.8378C86.2152 86.8378 85.1035 87.8218 85.1035 89.1748C85.1035 90.4048 86.0917 91.5119 87.4504 91.5119C88.6856 91.5119 89.7972 90.5278 89.7972 89.1748C89.7972 87.9448 88.6856 86.8378 87.4504 86.8378Z" fill="#026848"/>
<path d="M70.2804 33.0869C71.5156 33.0869 72.6273 32.1028 72.6273 30.7498C72.6273 29.3968 71.6391 28.4128 70.2804 28.4128C69.0452 28.4128 67.9336 29.3968 67.9336 30.7498C67.9336 32.1028 68.9217 33.0869 70.2804 33.0869Z" fill="#026848"/>
<path d="M35.0782 89.9128C33.3489 89.9128 31.9902 91.2658 31.9902 92.9878C31.9902 94.7098 33.3489 96.0628 35.0782 96.0628C36.8074 96.0628 38.1661 94.7098 38.1661 92.9878C38.1661 91.2658 36.8074 89.9128 35.0782 89.9128Z" fill="#026848"/>
<path d="M35.9417 27.675C36.8063 27.675 37.5474 28.413 37.5474 29.274C37.5474 30.135 36.8063 30.873 35.9417 30.873C35.077 30.873 34.3359 30.135 34.3359 29.274C34.3359 28.413 35.077 27.675 35.9417 27.675Z" fill="#026848"/>
<path d="M85.967 30.75C86.8317 30.75 87.5728 31.488 87.5728 32.349C87.5728 33.21 86.8317 33.948 85.967 33.948C85.1024 33.948 84.3613 33.21 84.3613 32.349C84.3613 31.488 85.1024 30.75 85.967 30.75Z" fill="#026848"/>
<path d="M76.5803 86.1C77.4449 86.1 78.1861 86.838 78.1861 87.699C78.1861 88.56 77.4449 89.298 76.5803 89.298C75.7157 89.298 74.9746 88.56 74.9746 87.699C74.9746 86.838 75.7157 86.1 76.5803 86.1Z" fill="#026848"/>
<path d="M45.3304 89.175C46.195 89.175 46.9361 89.913 46.9361 90.774C46.9361 91.635 46.195 92.373 45.3304 92.373C44.4657 92.373 43.7246 91.635 43.7246 90.774C43.7246 89.913 44.4657 89.175 45.3304 89.175Z" fill="#026848"/>
</svg>
