<svg width="124" height="122" viewBox="0 0 124 122" fill="none" xmlns="http://www.w3.org/2000/svg">
<path d="M124 0H0V122H124V0Z" fill="white"/>
<path d="M74.8669 51.117C74.6219 50.995 74.2543 50.751 73.8867 50.629V52.703C74.7444 52.703 75.2345 52.337 75.2345 51.849C75.2345 51.483 75.112 51.239 74.8669 51.117Z" fill="#026848"/>
<path d="M71.9258 46.3581C71.9258 46.6021 72.0483 46.8462 72.1708 47.0902C72.4159 47.2122 72.661 47.4561 73.0285 47.5781V45.5041C72.2934 45.5041 71.9258 45.7481 71.9258 46.3581Z" fill="#026848"/>
<path d="M84.4234 33.5489H82.0954C81.9729 32.2069 81.4828 31.1089 80.6251 30.2549C79.7673 29.4009 78.6646 28.9129 77.5618 28.9129C75.9689 28.9129 74.4986 29.7669 73.7634 30.9869C72.9057 29.7669 71.5578 28.9129 69.965 28.9129C68.3721 28.9129 66.9017 29.7669 66.1665 30.9869C65.3088 29.7669 63.961 28.9129 62.3681 28.9129C60.7752 28.9129 59.3049 29.7669 58.5697 30.9869C57.712 29.7669 56.3642 28.9129 54.7713 28.9129C53.1784 28.9129 51.708 29.7669 50.9729 30.9869C50.1152 29.7669 48.7673 28.9129 47.1744 28.9129C44.6013 28.9129 42.5183 30.9869 42.5183 33.5489H40.1903C39.8227 33.5489 39.4551 33.9149 39.4551 34.2809V86.9849C39.4551 90.2789 42.1507 92.9629 45.5816 92.9629H79.7673C83.0756 92.9629 85.8938 90.2789 85.8938 86.9849V34.2809C85.2812 33.9149 84.9136 33.5489 84.4234 33.5489ZM69.7199 30.4989C71.4353 30.4989 72.7831 31.8409 72.7831 33.5489H66.5341C66.6567 31.8409 68.0045 30.4989 69.7199 30.4989ZM62.0005 30.4989C63.7159 30.4989 65.0638 31.8409 65.0638 33.5489H58.8147C58.8147 31.8409 60.1626 30.4989 62.0005 30.4989ZM54.2812 30.4989C55.9966 30.4989 57.3444 31.8409 57.3444 33.5489H51.0954C51.2179 31.8409 52.5658 30.4989 54.2812 30.4989ZM49.9261 56.4849C50.2936 56.4849 50.6612 56.8509 50.6612 57.2169C50.6612 57.5829 50.2936 57.9489 49.9261 57.9489H45.7041C45.3365 57.9489 44.9689 57.5829 44.9689 57.2169C44.9689 56.8509 45.3365 56.4849 45.7041 56.4849H49.9261ZM46.4392 30.4989C48.1547 30.4989 49.5025 31.8409 49.5025 33.5489H43.2535C43.376 31.8409 44.7238 30.4989 46.4392 30.4989ZM45.7041 86.1309C44.8464 86.1309 44.1112 85.3989 44.1112 84.5449C44.1112 83.6909 44.8464 82.9589 45.7041 82.9589C46.5618 82.9589 47.297 83.6909 47.297 84.5449C47.1744 85.5209 46.5618 86.1309 45.7041 86.1309ZM50.3602 86.1309C49.5025 86.1309 48.7673 85.3989 48.7673 84.5449C48.7673 83.6909 49.5025 82.9589 50.3602 82.9589C51.2179 82.9589 51.9531 83.6909 51.9531 84.5449C51.9531 85.5209 51.2179 86.1309 50.3602 86.1309ZM55.0163 86.1309C54.1586 86.1309 53.4235 85.3989 53.4235 84.5449C53.4235 83.6909 54.1586 82.9589 55.0163 82.9589C55.874 82.9589 56.6092 83.6909 56.6092 84.5449C56.4867 85.5209 55.874 86.1309 55.0163 86.1309ZM59.5499 86.1309C58.6922 86.1309 57.9571 85.3989 57.9571 84.5449C57.9571 83.6909 58.6922 82.9589 59.5499 82.9589C60.4076 82.9589 61.1428 83.6909 61.1428 84.5449C61.2653 85.5209 60.4076 86.1309 59.5499 86.1309ZM64.3286 86.1309C63.4709 86.1309 62.7357 85.3989 62.7357 84.5449C62.7357 83.6909 63.4709 82.9589 64.3286 82.9589C65.1863 82.9589 65.9215 83.6909 65.9215 84.5449C65.799 85.5209 65.1863 86.1309 64.3286 86.1309ZM68.8622 86.1309C68.0045 86.1309 67.2693 85.3989 67.2693 84.5449C67.2693 83.6909 68.0045 82.9589 68.8622 82.9589C69.7199 82.9589 70.4551 83.6909 70.4551 84.5449C70.4551 85.5209 69.7199 86.1309 68.8622 86.1309ZM58.2401 80.8849H45.7041C45.3365 80.8849 44.9689 80.5189 44.9689 80.1529C44.9689 79.7869 45.3365 79.4209 45.7041 79.4209H58.2401C58.6077 79.4209 58.9753 79.7869 58.9753 80.1529C58.9753 80.5189 58.6077 80.8849 58.2401 80.8849ZM44.9689 75.5169C44.9689 75.1509 45.3365 74.7849 45.7041 74.7849H51.5292C51.8968 74.7849 52.2644 75.1509 52.2644 75.5169C52.2644 75.8829 51.8968 76.2489 51.5292 76.2489H45.7041C45.214 76.2489 44.9689 75.8829 44.9689 75.5169ZM57.1297 71.7349H45.7041C45.3365 71.7349 44.9689 71.3689 44.9689 71.0029C44.9689 70.6369 45.3365 70.2709 45.7041 70.2709H57.1297C57.4973 70.2709 57.8649 70.6369 57.8649 71.0029C57.8649 71.3689 57.4973 71.7349 57.1297 71.7349ZM44.9689 66.3669C44.9689 66.0009 45.3365 65.6349 45.7041 65.6349H51.8993C52.2669 65.6349 52.6345 66.0009 52.6345 66.3669C52.6345 66.7329 52.2669 67.0989 51.7768 67.0989H45.7041C45.214 67.0989 44.9689 66.7329 44.9689 66.3669ZM48.2461 62.5849H45.7041C45.3365 62.5849 44.9689 62.2189 44.9689 61.8529C44.9689 61.4869 45.3365 61.1209 45.7041 61.1209H48.2461C48.6137 61.1209 48.9813 61.4869 48.9813 61.8529C48.9813 62.2189 48.6137 62.5849 48.2461 62.5849ZM77.8068 53.1909C77.5618 53.6789 77.3167 54.0449 76.9492 54.2889C76.5816 54.5329 76.0914 54.7769 75.6013 54.8989C75.1112 55.0209 74.6211 55.1429 74.0084 55.1429V57.0949H72.7831V55.1429C71.3128 55.0209 69.5974 54.5329 68.3721 53.6789L69.5974 51.2389C69.5974 51.2389 69.7199 51.3609 69.965 51.4829C70.4551 51.8489 71.1903 52.0929 71.8029 52.3369C72.1705 52.4589 72.5381 52.5809 73.0282 52.5809V50.2629C72.6606 50.1409 71.6804 49.8969 70.7001 49.4089C69.965 49.0429 69.3523 48.5549 69.1072 47.8229C68.8622 47.0909 68.8622 45.8709 69.2298 45.0169C69.8424 43.5529 71.1902 42.8209 72.7831 42.6989V40.9909H74.0084V42.6989C74.7436 42.8209 75.4788 42.9429 76.0914 43.1869C76.7041 43.4309 77.3167 43.6749 77.8068 44.0409L76.5815 46.3589C76.5815 46.3589 76.459 46.2369 76.3365 46.1149C75.9689 45.8709 75.3563 45.6269 74.8661 45.3829C74.4986 45.2609 74.2535 45.1389 73.8859 45.1389V47.4569C74.0084 47.4569 74.9887 47.7009 75.9689 48.0669C77.0717 48.5549 77.5618 49.1649 77.9294 49.7749C78.0519 50.1409 78.1745 50.6289 78.1745 51.2389C78.1745 52.2149 78.0519 52.7029 77.8068 53.1909ZM74.376 33.5489C74.376 31.8409 75.7239 30.4989 77.4393 30.4989C78.1744 30.4989 78.9096 30.7429 79.3998 31.3529C79.8899 31.9629 80.2574 32.6949 80.38 33.5489H74.376Z" fill="#026848"/>
<path d="M44.8863 81.9868C42.8033 81.9868 41.0879 83.6948 41.0879 85.7688C41.0879 87.8428 42.8033 89.5508 44.8863 89.5508C46.9693 89.5508 48.6847 87.8428 48.6847 85.7688C48.6847 83.6948 46.9693 81.9868 44.8863 81.9868Z" fill="#026848"/>
<path d="M81.2772 35.4909C78.7041 35.4909 76.6211 37.5649 76.6211 40.1269C76.6211 42.6889 78.7041 44.7629 81.2772 44.7629C83.8503 44.7629 85.9334 42.6889 85.9334 40.1269C85.9334 37.5649 83.8503 35.4909 81.2772 35.4909Z" fill="#026848"/>
<path d="M49.419 36.9697C50.2768 36.9697 51.012 37.7017 51.012 38.5557C51.012 39.4097 50.2768 40.1417 49.419 40.1417C48.5613 40.1417 47.8262 39.4097 47.8262 38.5557C47.8262 37.7017 48.5613 36.9697 49.419 36.9697Z" fill="#026848"/>
<path d="M43.171 58.3197C44.0287 58.3197 44.7639 59.0517 44.7639 59.9057C44.7639 60.7597 44.0287 61.4917 43.171 61.4917C42.3133 61.4917 41.5781 60.7597 41.5781 59.9057C41.5781 59.0517 42.3133 58.3197 43.171 58.3197Z" fill="#026848"/>
<path d="M78.8272 54.4011C79.685 54.4011 80.4202 55.1331 80.4202 55.9871C80.4202 56.8411 79.685 57.5731 78.8272 57.5731C77.9695 57.5731 77.2344 56.8411 77.2344 55.9871C77.2344 55.1331 77.9695 54.4011 78.8272 54.4011Z" fill="#026848"/>
<path d="M80.421 78.8011C81.2787 78.8011 82.0139 79.5331 82.0139 80.3871C82.0139 81.2411 81.2787 81.9731 80.421 81.9731C79.5633 81.9731 78.8281 81.2411 78.8281 80.3871C78.8281 79.5331 79.5633 78.8011 80.421 78.8011Z" fill="#026848"/>
</svg>
