<svg width="20" height="20" viewBox="0 0 20 20" fill="none" xmlns="http://www.w3.org/2000/svg">
<path d="M10 0C10.9236 0 11.809 0.118056 12.6562 0.354167C13.5035 0.590278 14.3021 0.923611 15.0521 1.35417C15.8021 1.78472 16.4757 2.30556 17.0729 2.91667C17.6701 3.52778 18.191 4.20486 18.6354 4.94792C19.0799 5.69097 19.4167 6.48611 19.6458 7.33333C19.875 8.18056 19.9931 9.06944 20 10C20 10.9236 19.8819 11.809 19.6458 12.6562C19.4097 13.5035 19.0764 14.3021 18.6458 15.0521C18.2153 15.8021 17.6944 16.4757 17.0833 17.0729C16.4722 17.6701 15.7951 18.191 15.0521 18.6354C14.309 19.0799 13.5139 19.4167 12.6667 19.6458C11.8194 19.875 10.9306 19.9931 10 20C9.07639 20 8.19097 19.8819 7.34375 19.6458C6.49653 19.4097 5.69792 19.0764 4.94792 18.6458C4.19792 18.2153 3.52431 17.6944 2.92708 17.0833C2.32986 16.4722 1.80903 15.7951 1.36458 15.0521C0.920137 14.309 0.583332 13.5139 0.354166 12.6667C0.125 11.8194 0.00694466 10.9306 0 10C0 9.07639 0.118055 8.19097 0.354166 7.34375C0.590277 6.49653 0.923611 5.69792 1.35417 4.94792C1.78472 4.19792 2.30556 3.52431 2.91667 2.92708C3.52778 2.32986 4.20486 1.80903 4.94792 1.36458C5.69097 0.920139 6.48611 0.583333 7.33333 0.354167C8.18056 0.125 9.06944 0.00694444 10 0ZM10 18.6667C10.7986 18.6667 11.566 18.5625 12.3021 18.3542C13.0382 18.1458 13.7257 17.8542 14.3646 17.4792C15.0035 17.1042 15.5903 16.6528 16.125 16.125C16.6597 15.5972 17.1111 15.0139 17.4792 14.375C17.8472 13.7361 18.1389 13.0451 18.3542 12.3021C18.5694 11.559 18.6736 10.7917 18.6667 10C18.6667 9.20139 18.5625 8.43403 18.3542 7.69792C18.1458 6.96181 17.8542 6.27431 17.4792 5.63542C17.1042 4.99653 16.6528 4.40972 16.125 3.875C15.5972 3.34028 15.0139 2.88889 14.375 2.52083C13.7361 2.15278 13.0451 1.86111 12.3021 1.64583C11.559 1.43056 10.7917 1.32639 10 1.33333C9.20139 1.33333 8.43403 1.4375 7.69792 1.64583C6.96181 1.85417 6.27431 2.14583 5.63542 2.52083C4.99653 2.89583 4.40972 3.34722 3.875 3.875C3.34028 4.40278 2.88889 4.98611 2.52083 5.625C2.15278 6.26389 1.86111 6.95486 1.64583 7.69792C1.43056 8.44097 1.32639 9.20833 1.33333 10C1.33333 10.7986 1.4375 11.566 1.64583 12.3021C1.85417 13.0382 2.14583 13.7257 2.52083 14.3646C2.89583 15.0035 3.34722 15.5903 3.875 16.125C4.40278 16.6597 4.98611 17.1111 5.625 17.4792C6.26389 17.8472 6.95486 18.1389 7.69792 18.3542C8.44097 18.5694 9.20833 18.6736 10 18.6667ZM7.57292 9.33333H14.6667V10.6667H7.57292L10.4688 13.5208L9.53125 14.4792L5.01042 10L9.53125 5.52083L10.4688 6.47917L7.57292 9.33333Z" fill="black" fill-opacity="0.8"/>
</svg>
