<svg width="125" height="123" viewBox="0 0 125 123" fill="none" xmlns="http://www.w3.org/2000/svg">
<path d="M125 0H0V123H125V0Z" fill="white"/>
<path d="M89.8182 76.104L89.4169 69.5011C89.4335 68.4866 89.6887 67.536 90.1505 66.768L93.8049 61.25C94.5135 60.0386 94.5065 58.6357 93.6562 57.5167L89.3409 52.1593C88.6653 51.3417 88.3796 50.5011 88.2769 49.4547L87.8756 42.8518C87.8685 41.4489 86.8989 40.298 85.5868 39.947L79.0262 38.192C78.0719 37.9367 77.2133 37.3249 76.6251 36.6581L72.2779 31.4195C71.8965 30.9354 71.2445 30.5063 70.6481 30.3467C70.0517 30.1872 69.2722 30.2334 68.6994 30.4622L62.311 32.8289C61.3165 33.1997 60.4178 33.214 59.4635 32.9587L52.9028 31.2037C51.5907 30.8527 50.1746 31.3654 49.4659 32.5768L45.8115 38.0948C45.3178 38.9816 44.53 39.5351 43.5356 39.9059L37.1472 42.2725C35.8504 42.8172 35.0224 43.9967 35.1487 45.4315L35.55 52.0344C35.5334 53.0489 35.2783 53.9995 34.8165 54.7675L31.1621 60.2855C30.4534 61.4969 30.4604 62.8998 31.3107 64.0188L35.658 69.2574C36.3335 70.0749 36.6193 70.9155 36.722 71.9619L37.1233 78.5648C37.1303 79.9677 38.0999 81.1186 39.412 81.4696L45.9727 83.2247C46.927 83.48 47.7856 84.0917 48.3737 84.7585L52.7209 89.9971C53.1024 90.4812 53.7543 90.9104 54.3507 91.0699C54.9471 91.2295 55.7266 91.1833 56.2995 90.9544L62.6878 88.5877C63.6823 88.2169 64.5811 88.2026 65.5354 88.4579L72.096 90.213C73.4082 90.564 74.8242 90.0512 75.5329 88.8398L79.1873 83.3219C79.681 82.435 80.4688 81.8816 81.4633 81.5108L87.8517 79.1441C89.1166 78.7183 89.8571 77.388 89.8182 76.104ZM73.8868 52.1008C74.2211 51.8081 74.6982 51.9358 74.9923 52.2692C75.2864 52.6026 75.1588 53.0779 74.8245 53.3706L51.112 69.3159C50.9608 69.4028 50.6904 69.4578 50.4518 69.394C50.3325 69.3621 50.0939 69.2982 50.0384 69.0287C49.7444 68.6953 49.8719 68.2199 50.2062 67.9273L73.8868 52.1008ZM67.186 69.9223C66.6438 71.9424 64.5274 73.1593 62.4995 72.6169C60.4717 72.0744 59.2482 69.964 59.7904 67.9439C60.3326 65.9237 62.4491 64.7068 64.4769 65.2493C66.5047 65.7918 67.7282 67.9021 67.186 69.9223ZM57.6935 51.4625C58.2357 49.4423 60.3522 48.2254 62.38 48.7679C64.4079 49.3103 65.6313 51.4207 65.0892 53.4409C64.547 55.461 62.4305 56.6779 60.4027 56.1355C58.3748 55.593 57.1513 53.4826 57.6935 51.4625ZM83.2224 67.3345L83.403 70.949C83.4891 73.0099 82.3505 74.8705 80.3935 75.4932L77.0759 76.8983C76.503 77.1271 75.8664 77.5937 75.5877 78.1559L73.6211 81.196C72.5144 82.9378 70.4062 83.6475 68.4976 83.1369L64.9191 82.1796C64.3227 82.02 63.5432 82.0663 62.9704 82.2951L59.5654 83.5494C58.5709 83.9202 57.5528 83.9026 56.7178 83.6792C55.7636 83.424 54.8731 82.931 54.3168 82.1454L51.9962 79.3594C51.6147 78.8753 50.9628 78.4461 50.3664 78.2866L46.7879 77.3293C44.76 76.7868 43.4408 75.0329 43.3228 73.0909L43.1423 69.4764C43.0632 68.8184 42.8648 68.1285 42.4833 67.6444L39.956 64.6758C38.7242 63.0726 38.5507 60.861 39.6255 59.2381L41.5921 56.198C41.9901 55.6676 42.1815 54.9547 42.1024 54.2967L41.9218 50.6822C41.8357 48.6213 42.9743 46.7607 44.9313 46.138L48.3363 44.8837C48.9091 44.6548 49.5458 44.1883 49.8245 43.626L51.7911 40.5859C52.8978 38.8442 55.006 38.1345 56.9145 38.645L60.4931 39.6023C61.0895 39.7619 61.869 39.7157 62.4418 39.4868L65.8468 38.2325C67.7165 37.459 69.8636 38.0334 71.3339 39.7004C71.628 40.0338 71.5004 40.5091 71.1662 40.8018C70.8319 41.0945 70.3548 40.9668 70.0607 40.6334C69.2104 39.5144 67.779 39.1315 66.4822 39.6761L63.0772 40.9304C62.0827 41.3012 61.1839 41.3155 60.2296 41.0602L56.6511 40.1029C55.339 39.7519 53.9229 40.2647 53.2142 41.4761L51.2476 44.5162C50.7539 45.403 49.9661 45.9565 48.9717 46.3273L45.5667 47.5816C44.2698 48.1262 43.4419 49.3057 43.5682 50.7405L43.7488 54.355C43.7322 55.3695 43.477 56.3201 43.0152 57.0881L41.0486 60.1282C40.34 61.3397 40.347 62.7426 41.1973 63.8616L42.9215 66.488C43.5971 67.3055 43.8828 68.1462 43.9856 69.1925L44.1661 72.807C44.1731 74.2099 45.1427 75.3608 46.4549 75.7118L50.0334 76.6691C50.9877 76.9244 51.8463 77.5362 52.4344 78.203L54.7551 80.989C55.6054 82.108 57.0368 82.4909 58.3336 81.9463L61.7386 80.692C62.7331 80.3212 63.6318 80.3069 64.5861 80.5622L68.1647 81.5195C69.4768 81.8705 70.8929 81.3577 71.6016 80.1463L73.5681 77.1062C74.0618 76.2194 74.8496 75.6659 75.8441 75.2951L79.2491 74.0408C80.5459 73.4962 81.3739 72.3167 81.2476 70.8819L81.067 67.2674C81.0836 66.2529 81.3387 65.3023 81.8006 64.5343L83.7671 61.4942C84.4758 60.2827 84.4688 58.8799 83.6185 57.7608L81.2978 54.9748C80.6223 54.1573 80.3365 53.3167 80.2338 52.2703L80.2363 48.4501C80.2293 47.0472 79.2597 45.8963 77.9476 45.5452C77.5897 45.4495 77.3275 44.9973 77.4232 44.6408C77.5189 44.2843 77.9724 44.0235 78.3303 44.1193C80.3581 44.6617 81.6773 46.4156 81.7953 48.3577L81.9759 51.9721C82.055 52.6301 82.2534 53.32 82.6348 53.8041L84.9555 56.5901C86.1872 58.1933 86.3607 60.4049 85.2859 62.0278L83.3194 65.0679C83.454 65.9955 83.2945 66.5896 83.2224 67.3345Z" fill="#026848"/>
<path d="M53.4789 66.2608C52.0801 71.4727 54.9936 77.2796 60.7307 78.8144C65.9463 80.2096 71.7594 77.2958 73.2981 71.5626C74.8368 65.8295 71.7834 60.5437 66.0463 59.009C60.6908 58.1349 54.8778 61.0488 53.4789 66.2608Z" fill="#026848"/>
<path d="M63.7745 53.091C64.0935 51.9026 63.4262 50.5779 62.1141 50.2269C60.8019 49.8758 59.5925 50.5712 59.2417 51.8784C58.8909 53.1856 59.59 54.3915 60.9021 54.7425C62.2143 55.0935 63.4237 54.3981 63.7745 53.091Z" fill="#026848"/>
<ellipse cx="14.734" cy="16.5912" rx="14.734" ry="16.5912" transform="matrix(0.966032 0.258424 -0.259214 0.96582 52.2402 40.6512)" fill="#026848"/>
<path d="M95.3557 42.1903C96.2204 42.1903 96.9615 42.9283 96.9615 43.7893C96.9615 44.6503 96.2204 45.3883 95.3557 45.3883C94.4911 45.3883 93.75 44.6503 93.75 43.7893C93.75 42.9283 94.4911 42.1903 95.3557 42.1903Z" fill="#026848"/>
<path d="M92.2676 82.1653C93.1323 82.1653 93.8734 82.9033 93.8734 83.7643C93.8734 84.6253 93.1323 85.3633 92.2676 85.3633C91.403 85.3633 90.6619 84.6253 90.6619 83.7643C90.5384 82.9033 91.2795 82.1653 92.2676 82.1653Z" fill="#026848"/>
<path d="M88.1917 90.7751C87.327 90.7751 86.5859 91.5132 86.5859 92.3742C86.5859 93.2352 87.327 93.9731 88.1917 93.9731C89.0563 93.9731 89.7974 93.2352 89.7974 92.3742C89.7974 91.3902 89.0563 90.7751 88.1917 90.7751Z" fill="#026848"/>
<path d="M36.6858 38.5005C37.5504 38.5005 38.2915 37.7625 38.2915 36.9015C38.2915 36.0405 37.5504 35.3025 36.6858 35.3025C35.8212 35.3025 35.0801 36.0405 35.0801 36.9015C35.0801 37.8855 35.8212 38.5005 36.6858 38.5005Z" fill="#026848"/>
<path d="M32.8566 86.1017C31.6214 86.1017 30.5098 87.0857 30.5098 88.4387C30.5098 89.6687 31.4979 90.7757 32.8566 90.7757C34.2153 90.7757 35.2034 89.7917 35.2034 88.4387C35.0799 87.0857 34.0918 86.1017 32.8566 86.1017Z" fill="#026848"/>
<path d="M93.0098 35.4251C94.739 35.4251 96.0977 34.0721 96.0977 32.3501C96.0977 30.6281 94.739 29.2751 93.0098 29.2751C91.2805 29.2751 89.9219 30.6281 89.9219 32.3501C89.7983 34.0721 91.157 35.4251 93.0098 35.4251Z" fill="#026848"/>
</svg>
