<svg width="127" height="125" viewBox="0 0 127 125" fill="none" xmlns="http://www.w3.org/2000/svg">
<rect width="127" height="125" fill="white"/>
<path d="M40.0522 31.0606H43.2705V33.2952H40.0522V31.0606ZM75.8353 31.0606H78.0717V33.2952H75.8353V31.0606ZM51.2344 73.5176C51.2344 73.8139 51.1166 74.0981 50.9069 74.3076C50.6972 74.5172 50.4127 74.6349 50.1162 74.6349H41.1704C40.8738 74.6349 40.5894 74.5172 40.3797 74.3076C40.17 74.0981 40.0522 73.8139 40.0522 73.5176V64.5793H32.2246V91.3942H59.062V64.5793H51.2344V73.5176ZM54.5891 86.9251H56.8255V89.1596H54.5891V86.9251ZM52.3526 89.1596H50.1162V86.9251H52.3526V89.1596ZM88.1358 48.9372V35.5298H80.3082V44.4681C80.3082 44.7644 80.1904 45.0486 79.9807 45.2581C79.771 45.4677 79.4865 45.5854 79.19 45.5854H70.2442C69.9476 45.5854 69.6632 45.4677 69.4535 45.2581C69.2438 45.0486 69.126 44.7644 69.126 44.4681V35.5298H61.2984V62.3447H68.0077V53.4064C68.0091 52.2215 68.4808 51.0855 69.3193 50.2477C70.1578 49.4098 71.2948 48.9386 72.4806 48.9372H88.1358Z" fill="#026848"/>
<path d="M42.2886 64.5793H48.998V68.6124H42.2886V64.5793ZM51.2344 44.4681C51.2344 44.7644 51.1166 45.0486 50.9069 45.2581C50.6972 45.4677 50.4127 45.5854 50.1162 45.5854H41.1704C40.8738 45.5854 40.5894 45.4677 40.3797 45.2581C40.17 45.0486 40.0522 44.7644 40.0522 44.4681V35.5298H32.2246V62.3447H59.062V35.5298H51.2344V44.4681ZM54.5891 57.8756H56.8255V60.1101H54.5891V57.8756ZM52.3526 60.1101H50.1162V57.8756H52.3526V60.1101ZM61.2984 64.5793H68.0077V91.3942H61.2984V64.5793Z" fill="#026848"/>
<path d="M42.2891 35.5298H48.9984V39.5629H42.2891V35.5298ZM92.6091 51.1718H72.4811C71.8881 51.1725 71.3197 51.4082 70.9004 51.8271C70.4812 52.246 70.2453 52.814 70.2446 53.4064V91.3942C70.2453 91.9867 70.4812 92.5546 70.9004 92.9735C71.3197 93.3925 71.8881 93.6281 72.4811 93.6288H92.6091C93.202 93.6281 93.7705 93.3925 94.1897 92.9735C94.609 92.5546 94.8448 91.9867 94.8455 91.3942V53.4064C94.8448 52.814 94.609 52.246 94.1897 51.8271C93.7705 51.4082 93.202 51.1725 92.6091 51.1718ZM83.6633 53.4064H85.8997V55.641H83.6633V53.4064ZM79.1904 53.4064H81.4269V55.641H79.1904V53.4064ZM82.5451 60.1101C83.9193 60.1099 85.2695 60.4711 86.4597 61.1576L85.3398 63.0919C84.2737 62.4771 83.0344 62.2309 81.8141 62.3915C80.5937 62.5521 79.4605 63.1106 78.5901 63.9803C77.7198 64.85 77.161 65.9824 77.0004 67.2017C76.8398 68.4211 77.0863 69.6594 77.7018 70.7245C78.3172 71.7896 79.2673 72.622 80.4045 73.0926C81.5417 73.5633 82.8025 73.6459 83.9915 73.3276C85.1805 73.0093 86.2311 72.3079 86.9805 71.3322C87.7299 70.3565 88.1361 69.161 88.1362 67.9312H90.3726C90.3726 69.478 89.9136 70.9901 89.0535 72.2763C88.1933 73.5625 86.9709 74.5649 85.5406 75.1568C84.1103 75.7488 82.5364 75.9037 81.018 75.6019C79.4996 75.3001 78.1049 74.5553 77.0102 73.4615C75.9155 72.3677 75.1699 70.9741 74.8679 69.457C74.5659 67.9398 74.7209 66.3673 75.3134 64.9382C75.9058 63.5091 76.9091 62.2876 78.1963 61.4282C79.4836 60.5688 80.9969 60.1101 82.5451 60.1101ZM73.5993 79.104H75.8357V81.3386H73.5993V79.104ZM83.6633 91.3942H81.4269V89.1597H83.6633V91.3942ZM80.1177 85.8078H73.5993V83.5732H80.1177V85.8078ZM80.1177 81.3386H78.0722V79.104H80.1177V81.3386ZM83.3358 70.9558C83.232 71.0596 83.1087 71.1419 82.973 71.198C82.8373 71.2542 82.6919 71.2831 82.5451 71.2831C82.3982 71.2831 82.2528 71.2542 82.1171 71.198C81.9815 71.1419 81.8582 71.0596 81.7544 70.9558L78.9412 68.145L80.5226 66.5649L82.5451 68.5858L87.8883 62.2456L89.4698 63.8257L83.3358 70.9558ZM71.3629 35.5298H78.0722V39.5629H71.3629V35.5298Z" fill="#026848"/>
<path d="M28.6991 68.6837C28.6991 67.024 27.3661 65.5303 25.5331 65.5303C23.7002 65.5303 22.3672 66.858 22.3672 68.6837C22.3672 70.5094 23.7002 71.8372 25.5331 71.8372C27.3661 71.8372 28.6991 70.3434 28.6991 68.6837Z" fill="#026848"/>
<path d="M98.4591 98.8636C97.2927 98.8636 96.293 99.8596 96.293 101.021C96.293 102.183 97.2927 103.179 98.4591 103.179C99.6255 103.179 100.625 102.183 100.625 101.021C100.625 99.8596 99.6255 98.8636 98.4591 98.8636Z" fill="#026848"/>
<path d="M103.107 42.0281C103.107 39.7045 101.274 37.8788 98.9411 37.8788C96.6083 37.8788 94.7754 39.7045 94.7754 42.0281C94.7754 44.3517 96.6083 46.1774 98.9411 46.1774C101.274 46.1774 103.107 44.3517 103.107 42.0281Z" fill="#026848"/>
<path d="M25.2912 35.606C26.4576 35.606 27.4573 36.6018 27.4573 37.7637C27.4573 38.9255 26.4576 39.9213 25.2912 39.9213C24.1248 39.9213 23.125 38.9255 23.125 37.7637C23.125 36.6018 24.1248 35.606 25.2912 35.606Z" fill="#026848"/>
<path d="M49.9337 20.8333C51.1001 20.8333 52.0999 21.8291 52.0999 22.9909C52.0999 24.1528 51.1001 25.1486 49.9337 25.1486C48.7673 25.1486 47.7676 24.1528 47.7676 22.9909C47.7676 21.8291 48.7673 20.8333 49.9337 20.8333Z" fill="#026848"/>
<path d="M100.733 61.3636C101.899 61.3636 102.899 62.3595 102.899 63.5213C102.899 64.6831 101.899 65.6789 100.733 65.6789C99.5662 65.6789 98.5664 64.6831 98.5664 63.5213C98.5664 62.3595 99.5662 61.3636 100.733 61.3636Z" fill="#026848"/>
<path d="M37.3015 96.8215C38.4679 96.8215 39.4677 97.8174 39.4677 98.9792C39.4677 100.141 38.4679 101.137 37.3015 101.137C36.1351 101.137 35.1354 100.141 35.1354 98.9792C34.9687 97.8174 35.9685 96.8215 37.3015 96.8215Z" fill="#026848"/>
<path d="M90.8953 23.106C92.0617 23.106 93.0615 24.1018 93.0615 25.2636C93.0615 26.4255 92.0617 27.4213 90.8953 27.4213C89.7289 27.4213 88.7291 26.4255 88.7291 25.2636C88.5625 24.1018 89.5623 23.106 90.8953 23.106Z" fill="#026848"/>
</svg>
