<svg width="128" height="126" viewBox="0 0 128 126" fill="none" xmlns="http://www.w3.org/2000/svg">
<rect width="128" height="126" fill="white"/>
<path d="M45.4477 94.7932L32.2731 81.4768C31.4254 80.62 30.9492 79.4579 30.9492 78.2462V50.591C30.9492 49.3122 31.8809 48.1694 33.1417 48.0628C34.4955 47.9484 35.6371 48.9393 35.7501 50.2778L37.1692 67.0746C36.9876 67.2118 36.8119 67.3583 36.6485 67.5234C35.6847 68.4975 35.1883 69.8183 35.2736 71.208C35.3478 72.4173 35.9186 73.5416 36.7662 74.3984L46.4955 84.2325C46.8936 84.6349 47.5346 84.7325 47.9913 84.3997C48.5734 83.9757 48.6218 83.1505 48.1363 82.6599L38.3312 72.7492C37.4002 71.8082 37.2629 70.2688 38.1289 69.2664C38.6639 68.6472 39.4423 68.3368 40.2572 68.4226C40.8492 68.4849 41.3908 68.7913 41.8117 69.2167L45.8475 73.296C47.2508 74.7145 49.1218 75.4883 51.1433 75.4706C52.7684 75.4563 54.3217 76.1495 55.4708 77.3111L61.8364 83.7454C62.684 84.6022 63.1601 85.7642 63.1601 86.9758V97.7472C63.1601 98.0627 62.9071 98.3184 62.595 98.3184H46.7721V98.0245C46.7721 96.8041 46.3017 95.6567 45.4477 94.7932ZM81.8086 98.0245V98.3185H65.9857C65.6736 98.3185 65.4206 98.0628 65.4206 97.7473V86.9759C65.4206 85.7643 65.8967 84.6023 66.7443 83.7455L73.1099 77.3111C74.259 76.1496 75.8123 75.4564 77.4374 75.4706C79.4589 75.4883 81.3299 74.7146 82.7332 73.2961L86.7691 69.2168C87.1899 68.7914 87.7315 68.485 88.3235 68.4227C89.1384 68.3369 89.9168 68.6472 90.4518 69.2665C91.3178 70.2689 91.1805 71.8082 90.2495 72.7493L80.4444 82.6599C79.959 83.1506 80.0073 83.9757 80.5894 84.3998C81.0461 84.7326 81.6871 84.6349 82.0852 84.2326L91.8145 74.3985C92.6621 73.5417 93.2329 72.4174 93.3071 71.2081C93.3924 69.8184 92.896 68.4976 91.9322 67.5234C91.7688 67.3583 91.5931 67.2119 91.4115 67.0747L92.8306 50.2779C92.9436 48.9394 94.0852 47.9484 95.439 48.0629C96.6998 48.1695 97.6315 49.3123 97.6315 50.5911V78.2462C97.6315 79.4579 97.1553 80.62 96.3076 81.4768L83.133 94.7932C82.279 95.6567 81.8086 96.8041 81.8086 98.0245Z" fill="#026848"/>
<path d="M64.5956 76.2166C64.4079 76.3399 64.1728 76.3399 63.9851 76.2166C61.771 74.7631 56.0321 70.6268 54.8861 66.1499C54.8781 66.1 54.8654 66.052 54.8514 66.0044C54.7274 65.4722 54.6656 64.9359 54.6882 64.3986C54.792 61.9312 56.9314 59.9621 59.3731 60.0518C61.0504 60.1134 62.5342 61.0923 63.2725 62.6377C63.461 63.0324 63.8567 63.2834 64.2904 63.2834C64.7242 63.2834 65.1193 63.0324 65.308 62.6377C66.0937 60.9932 67.7232 59.9902 69.5329 60.0514C71.9768 60.134 73.8972 62.1466 73.8972 64.6183C73.8972 65.101 73.8332 65.5827 73.7173 66.0607C73.7126 66.0805 73.7068 66.0998 73.7029 66.1198C72.5753 70.608 66.8145 74.7597 64.5956 76.2166ZM80.1133 65.1894H76.1319C76.1457 64.9995 76.1575 64.8096 76.1575 64.6182C76.1575 60.8389 73.1154 57.764 69.3763 57.764C67.4183 57.764 65.5671 58.6402 64.2959 60.0917C63.0305 58.6252 61.1991 57.764 59.2044 57.764C55.465 57.764 52.4232 60.8389 52.4232 64.6182C52.4232 64.8096 52.4348 64.9995 52.4486 65.1894H48.4674C47.8441 65.1894 47.3372 64.6768 47.3372 64.047V48.563L54.6574 53.2363C55.1991 53.5823 55.8269 53.7659 56.4678 53.7656H72.1127C72.7542 53.7656 73.3803 53.5827 73.9233 53.2363L81.2435 48.563V64.047C81.2435 64.6768 80.7363 65.1894 80.1133 65.1894ZM46.207 41.1995C46.207 40.5697 46.7139 40.0571 47.3372 40.0571H81.2435C81.8665 40.0571 82.3737 40.5697 82.3737 41.1995V44.5097C82.3737 44.9038 82.1767 45.265 81.8469 45.4756L72.7164 51.3043C72.5357 51.4197 72.3264 51.4809 72.1127 51.4809H56.4678C56.2541 51.4809 56.0448 51.4198 55.864 51.3046L46.7335 45.4756C46.4038 45.265 46.207 44.9038 46.207 44.5097V41.1995ZM55.2487 38.3435C56.1849 38.3435 56.944 37.5762 56.944 36.6299V33.774C56.944 32.1993 58.2114 30.918 59.7695 30.918H68.8112C70.3691 30.918 71.6367 32.1993 71.6367 33.774V36.6299C71.6367 37.5762 72.3955 38.3435 73.332 38.3435C74.2682 38.3435 75.0273 37.5762 75.0273 36.6299V33.774C75.0273 30.3095 72.2388 27.4909 68.8112 27.4909H59.7695C56.3419 27.4909 53.5534 30.3095 53.5534 33.774V36.6299C53.5534 37.5762 54.3122 38.3435 55.2487 38.3435Z" fill="#026848"/>
<path d="M80.6239 32.279C81.8887 32.279 83.027 31.2709 83.027 29.8849C83.027 28.4989 82.0152 27.4909 80.6239 27.4909C79.359 27.4909 78.2207 28.4989 78.2207 29.8849C78.2207 31.2709 79.2326 32.279 80.6239 32.279Z" fill="#026848"/>
<path d="M29.5253 95.5306C27.7546 95.5306 26.3633 96.9166 26.3633 98.6806C26.3633 100.445 27.7546 101.831 29.5253 101.831C31.2961 101.831 32.6874 100.445 32.6874 98.6806C32.6874 96.9166 31.2961 95.5306 29.5253 95.5306Z" fill="#026848"/>
<path d="M38.1267 37.5711C39.012 37.5711 39.7709 38.327 39.7709 39.209C39.7709 40.091 39.012 40.847 38.1267 40.847C37.2413 40.847 36.4824 40.091 36.4824 39.209C36.4824 38.327 37.2413 37.5711 38.1267 37.5711Z" fill="#026848"/>
<path d="M93.779 35.0505C94.6644 35.0505 95.4233 35.8064 95.4233 36.6884C95.4233 37.5704 94.6644 38.3264 93.779 38.3264C92.8936 38.3264 92.1348 37.5704 92.1348 36.6884C92.1348 35.8064 92.8936 35.0505 93.779 35.0505Z" fill="#026848"/>
<path d="M92.5134 95.5306C93.3988 95.5306 94.1577 96.2866 94.1577 97.1686C94.1577 98.0506 93.3988 98.8066 92.5134 98.8066C91.628 98.8066 90.8691 98.0506 90.8691 97.1686C90.8691 96.2866 91.628 95.5306 92.5134 95.5306Z" fill="#026848"/>
<path d="M41.9197 99.3108C42.8051 99.3108 43.5639 100.067 43.5639 100.949C43.5639 101.831 42.8051 102.587 41.9197 102.587C41.0343 102.587 40.2754 101.831 40.2754 100.949C40.2754 100.067 41.0343 99.3108 41.9197 99.3108Z" fill="#026848"/>
<path d="M58.2725 59.0283C54.6044 58.4174 53.8148 63.992 53.8785 66.8556L58.2725 76.21L65.3411 78.6918C68.4615 76.7191 74.8934 71.8191 75.6576 68.0009C76.6128 63.2282 72.4098 60.1736 70.6904 59.0283C69.3149 58.1121 66.2964 60.1737 64.959 61.3191C64.2586 60.81 61.9406 59.6392 58.2725 59.0283Z" fill="white"/>
<path d="M72.4091 66.3315C72.4091 71.3441 64.9734 75.4014 64.6567 75.5689C64.5733 75.6138 64.48 75.6373 64.3852 75.6373C64.2904 75.6373 64.1971 75.6138 64.1137 75.5689C63.797 75.4014 56.3613 71.3441 56.3613 66.3315C56.3627 65.1544 56.8311 64.026 57.6638 63.1936C58.4965 62.3613 59.6255 61.8932 60.8031 61.8918C62.2825 61.8918 63.5778 62.5277 64.3852 63.6025C65.1926 62.5277 66.4879 61.8918 67.9673 61.8918C69.1449 61.8932 70.2739 62.3613 71.1067 63.1936C71.9394 64.026 72.4078 65.1544 72.4091 66.3315Z" fill="#026848"/>
</svg>
