<svg width="32" height="32" viewBox="0 0 32 32" fill="none" xmlns="http://www.w3.org/2000/svg">
<path opacity="0.2" fill-rule="evenodd" clip-rule="evenodd" d="M0 16C0 7.16344 7.16344 0 16 0C24.8366 0 32 7.16344 32 16C32 24.8366 24.8366 32 16 32C7.16344 32 0 24.8366 0 16Z" fill="#026848"/>
<path fill-rule="evenodd" clip-rule="evenodd" d="M24.5335 15.9881C24.5335 16.5651 24.4747 17.1414 24.3593 17.7032C24.2468 18.2516 24.0801 18.79 23.8618 19.3047C23.6485 19.8103 23.3839 20.2975 23.0747 20.7518C22.7701 21.2033 22.4192 21.6269 22.0338 22.013C21.6475 22.3975 21.2225 22.7474 20.7712 23.0532C20.3154 23.3603 19.8275 23.6245 19.3216 23.8388C18.8061 24.056 18.2665 24.2224 17.7186 24.3348C17.1561 24.4505 16.5777 24.5095 15.9997 24.5095C15.4214 24.5095 14.843 24.4505 14.2813 24.3348C13.7326 24.2224 13.1929 24.056 12.6779 23.8388C12.1721 23.6245 11.6837 23.3603 11.2278 23.0532C10.7766 22.7474 10.3516 22.3975 9.96611 22.013C9.58027 21.6269 9.2294 21.2033 8.92439 20.7518C8.61687 20.2975 8.35184 19.8102 8.13768 19.3047C7.9193 18.79 7.75224 18.2516 7.63931 17.7032C7.52515 17.1414 7.4668 16.5651 7.4668 15.9881C7.4668 15.4105 7.52511 14.833 7.63934 14.2725C7.75227 13.7241 7.91934 13.1848 8.13771 12.671C8.35187 12.165 8.6169 11.6774 8.92442 11.223C9.22943 10.7711 9.5803 10.3484 9.96614 9.96183C10.3516 9.57734 10.7766 9.22828 11.2279 8.92287C11.6837 8.61453 12.1721 8.35035 12.6779 8.13563C13.193 7.91797 13.7326 7.75115 14.2814 7.63965C14.8431 7.52482 15.4214 7.46655 15.9998 7.46655C16.5777 7.46655 17.1561 7.52482 17.7186 7.63965C18.2665 7.75118 18.8061 7.91801 19.3216 8.13563C19.8275 8.35032 20.3154 8.61453 20.7713 8.92287C21.2225 9.22828 21.6476 9.57734 22.0338 9.96183C22.4193 10.3484 22.7701 10.7711 23.0747 11.223C23.3839 11.6774 23.6485 12.1651 23.8618 12.671C24.0801 13.1848 24.2468 13.7241 24.3593 14.2725C24.4747 14.833 24.5335 15.4105 24.5335 15.9881ZM12.8904 9.40593C10.8582 10.3642 9.34143 12.2341 8.86848 14.4876C9.0606 14.4893 12.0974 14.5276 15.5963 13.5993C14.335 11.3615 12.9875 9.53537 12.8904 9.40593ZM16.2001 14.7198C12.4479 15.8416 8.84724 15.7609 8.71808 15.7559C8.71597 15.8341 8.71223 15.9098 8.71223 15.988C8.71223 17.8575 9.41851 19.5618 10.5794 20.8505C10.5769 20.8467 12.5712 17.3137 16.5039 16.0438C16.5989 16.0122 16.6956 15.9839 16.7914 15.9564C16.6085 15.5429 16.4089 15.1284 16.2001 14.7198ZM20.8125 10.5265C19.5295 9.39677 17.8448 8.71152 15.9997 8.71152C15.4076 8.71152 14.833 8.78309 14.2825 8.9154C14.3917 9.06188 15.7605 10.8752 17.0068 13.1603C19.7566 12.1309 20.7945 10.5531 20.8125 10.5265ZM17.2882 17.1622C17.2719 17.1676 17.2557 17.1723 17.2398 17.1781C12.9401 18.6748 11.536 21.6913 11.5208 21.7242C12.7579 22.685 14.3097 23.2646 15.9998 23.2646C17.009 23.2646 17.9703 23.0594 18.8449 22.6879C18.737 22.0521 18.3136 19.8235 17.2882 17.1622ZM20.072 22.023C21.7083 20.9204 22.8705 19.1695 23.1946 17.1414C23.0446 17.0931 21.0058 16.4486 18.6536 16.8252C19.6095 19.4482 19.9978 21.5844 20.072 22.023ZM17.5678 14.2446C17.7369 14.5917 17.9007 14.9449 18.0519 15.2998C18.1057 15.4272 18.1582 15.552 18.2095 15.6768C20.7129 15.3622 23.1793 15.8915 23.2847 15.9131C23.2681 14.188 22.6501 12.6048 21.6276 11.3653C21.6138 11.3848 20.445 13.0712 17.5678 14.2446Z" fill="#026848" stroke="#026848"/>
</svg>
