<svg width="70" height="70" viewBox="0 0 70 70" fill="none" xmlns="http://www.w3.org/2000/svg">
<rect width="70" height="70" rx="6" fill="#F1F8F5"/>
<path d="M51.1581 24.7873C45.4738 15.9997 33.8683 13.3872 24.8681 18.8497C16.1047 24.3123 13.2625 36.1874 18.9469 44.9749L19.4206 45.6874L17.5258 52.8125L24.6312 50.9125L25.3418 51.3875C28.4208 53.05 31.7366 54 35.0525 54C38.6052 54 42.1579 53.05 45.2369 51.15C54.0003 45.4499 56.6056 33.8123 51.1581 24.7873ZM46.1843 43.0749C45.2369 44.4999 44.0527 45.4499 42.3948 45.6874C41.4474 45.6874 40.2631 46.1624 35.5262 44.2624C31.4998 42.3624 28.1839 39.2749 25.8155 35.7124C24.3944 34.0498 23.6838 31.9123 23.447 29.7748C23.447 27.8748 24.1575 26.2123 25.3418 25.0248C25.8155 24.5498 26.2892 24.3123 26.7628 24.3123H27.9471C28.4208 24.3123 28.8945 24.3123 29.1313 25.2623C29.605 26.4498 30.7893 29.2998 30.7893 29.5373C31.0261 29.7748 31.0261 30.2498 30.7893 30.4873C31.0261 30.9623 30.7893 31.4373 30.5524 31.6748C30.3156 31.9123 30.0787 32.3873 29.8419 32.6248C29.3682 32.8623 29.1313 33.3373 29.3682 33.8123C30.3156 35.2374 31.4998 36.6624 32.684 37.8499C34.1051 39.0374 35.5262 39.9874 37.1841 40.6999C37.6578 40.9374 38.1315 40.9374 38.3684 40.4624C38.6052 39.9874 39.7894 38.7999 40.2631 38.3249C40.7368 37.8499 40.9737 37.8499 41.4474 38.0874L45.2369 39.9874C45.7106 40.2249 46.1843 40.4624 46.4212 40.6999C46.658 41.4124 46.658 42.3624 46.1843 43.0749Z" fill="#026848"/>
</svg>
